<?xml version="1.0" encoding="utf-8"?>
<!-- Generator: Adobe Illustrator 22.0.1, SVG Export Plug-In . SVG Version: 6.00 Build 0)  -->
<svg version="1.1" id="图层_1" xmlns="http://www.w3.org/2000/svg" xmlns:xlink="http://www.w3.org/1999/xlink" x="0px" y="0px"
	 viewBox="0 0 615.3 2518.9" style="enable-background:new 0 0 615.3 2518.9;" xml:space="preserve">
<style type="text/css">
	.st0{display:none;}
	.st1{display:inline;fill:none;}
	.st2{display:inline;fill:#FDCBC4;}
	.st3{display:inline;fill:#090705;}
	.st4{display:inline;fill:#E89D22;}
	.st5{display:inline;fill:#984E00;}
	.st6{display:inline;}
	.st7{display:inline;fill:#040304;}
	.st8{display:inline;fill:#0E1010;}
	.st9{fill:none;}
	.st10{font-family:'STKaiti';}
	.st11{font-size:335.7758px;}
	.st12{clip-path:url(#SVGID_2_);}
	.st13{display:inline;fill:#FFFFFF;}
</style>
<g id="图层_1_1_">
	<g id="Layer_1" class="st0">
		<path class="st1" d="M-488.4,637.3v174.6h52.7c0-4.8,0-9.7-0.1-14.5c0-1.6,0.5-2.3,2-2c1.7,0.3,2.1-0.7,2-2.1
			c-0.1-0.8,0.1-1.7-0.1-2.6c-0.2-1.5,0.3-2.5,2.1-2.2c1.5,0.3,2-0.5,1.9-1.9c-0.1-1.6,0.1-3.3-0.1-4.9c-0.1-2.1-0.3-4.1,2.8-3.6
			c0.9,0.2,1.1-0.6,1.1-1.3c0-0.9,0.1-1.9,0-2.8c-0.2-1.8,0.1-3.1,2.4-2.7c1.3,0.2,1.7-0.5,1.5-1.7c-0.1-0.9,0.1-1.8-0.1-2.6
			c-0.2-1.9,0.3-3,2.5-2.6c1.1,0.2,1.7-0.4,1.5-1.4c-0.3-1.7,0.5-2.1,2.1-2c0.8,0.1,2,0.3,1.9-1.1c-0.2-2,0.7-2.6,2.5-2.3
			c1.1,0.2,1.6-0.4,1.4-1.5c-0.3-1.7,0.6-2.1,2.1-2c0.7,0.1,1.9,0.3,1.8-0.8c-0.2-2.2,0.7-2.9,2.8-2.6c0.9,0.2,1.3-0.4,1.2-1.2
			c-0.3-2,0.7-2.4,2.4-2.2c1,0.1,1.7-0.3,1.5-1.4c-0.2-1.6,0.5-2.2,2-2c1.4,0.2,2.1-0.3,1.9-1.9c-0.2-1.5,0.7-1.8,1.9-1.6
			c1.5,0.2,2.3-0.2,2.1-1.9c-0.2-1.3,0.6-1.6,1.8-1.5c1.3,0.1,2.6-0.1,3.9,0.1c1.5,0.1,2.5-0.3,2.3-2.1c-0.2-1.2,0.6-1.4,1.6-1.4
			c2.1,0,4.3-0.1,6.4-0.2l0,0l0,0c-0.4-1.9-0.7-3.7,2.3-3.3c1.1,0.2,1.6-0.4,1.4-1.5c-0.2-1.7,0.6-2.1,2.1-2
			c1.1,0.1,2.2-0.1,3.4,0.1c1.7,0.2,2.7-0.2,2.4-2.2c-0.2-1,0.5-1.3,1.4-1.3c1.3,0.1,2.6-0.1,3.9,0.1c1.7,0.1,2.9-0.1,2.6-2.3
			c-0.2-1.3,0.8-1.2,1.7-1.2c2.6,0,5.3-0.1,8,0c1.3,0.1,2.3-0.1,2.1-1.8c-0.2-1.7,0.8-1.8,2.1-1.8c2.6,0.1,5.2-0.1,7.7,0.1
			c1.3,0.1,2.2-0.2,2-1.8c-0.2-1.6,0.8-1.7,2.1-1.7c5.1,0.1,10.1,0.1,15.2,0c0.9,0,2,0.5,2.5-0.7c-0.2-0.7-0.2-1.4,0.1-2
			c0.4-1.2,1.4-0.7,2.2-0.7c5.7-0.1,11.5-0.1,17.2-0.1c-0.3-2.8,0.8-3.5,3.6-3.5c26.5,0.2,52.9,0.2,79.4,0c2.8,0,3.9,0.7,3.6,3.5
			c5.7,0,11.5,0,17.2,0.1c0.7,0,1.8-0.6,2.2,0.6c-0.2,2.5,1.1,2.9,3.4,2.8c4.7-0.2,9.4-0.1,14.1-0.1c1.4,0,2.6,0,2.3,2
			c-0.2,1.3,0.6,1.5,1.7,1.5c2.1-0.1,4.1,0.2,6.1-0.1c2.8-0.4,4.4,0.4,4.1,3.5c3.3,0,6.6-0.1,9.8,0c0.6,0,1.4-0.5,1.6,0.7
			c-0.3,2.5,1.1,3,3.2,2.7c0.8-0.1,1.7,0.1,2.6-0.1c1.5-0.1,2.5,0.2,2.3,2c-0.2,1.1,0.5,1.5,1.5,1.4c0.9-0.1,1.9,0,2.8,0
			c3.4,0,3.4,0,3.6,3.4c1.2,0.6,2.8-0.8,3.7,0.8c-0.3,2.5,1,3,3.2,2.7c0.8-0.1,1.7,0.1,2.6,0c1.5-0.1,2.5,0.1,2.3,2
			c-0.2,1.1,0.5,1.5,1.5,1.4c0.9-0.1,1.9,0,2.8,0c3.4,0,3.4,0,3.6,3.4c1.2,0.6,2.8-0.8,3.7,0.8c0,1.8,0.3,3.2,2.7,2.7
			c1.4-0.3,1.4,0.7,1.4,1.8c-0.1,0.8-0.1,1.8,1,1.6c3.1-0.6,3,1.4,3,3.5c1.2,0.4,2.7-0.8,3.6,0.7c0,1.8,0.4,3.2,2.7,2.7
			c0.9-0.2,1.5,0.3,1.3,1.3c-0.3,1.8,0.5,2.3,2.2,2.1c1.3-0.2,1.9,0.4,1.8,1.8c0,0.6,0.1,1.2,0.3,1.8c1.1,0.3,2.6-0.9,3.5,0.7
			c0,1.7,0.3,3.2,2.6,2.7c1.1-0.2,1.5,0.4,1.4,1.5c0,1.8,0.1,3.6,0.1,5.3c1.2,0.5,2.7-0.9,3.7,0.8c0.1,0.9,0.2,1.9,0.1,2.8
			c-0.1,2-0.3,3.9,2.8,3.4c1.1-0.2,1.2,0.7,1.2,1.5c0,2.3,0.1,4.6,0,7c-0.1,1.3,0.3,2,1.7,1.8c1.9-0.3,2.5,0.6,2.3,2.3
			c-0.1,0.7,0.1,1.4,0,2.1c-0.2,1.8,0.2,2.9,2.3,2.5c1.4-0.3,1.7,0.6,1.7,1.9c0,4.9,0,9.8,0,14.7H74.4c0.1-0.2,0.1-0.5,0.1-0.7
			c0-0.9,0.1-1.9,0-2.8c-0.2-1.8,0.1-3.1,2.4-2.7c1.3,0.2,1.7-0.5,1.6-1.7c-0.1-0.9,0.1-1.8-0.1-2.6c-0.2-1.9,0.3-3,2.5-2.6
			c1.1,0.2,1.6-0.4,1.4-1.5c-0.2-1.7,0.6-2.1,2.1-2s2-0.5,1.9-1.9c-0.1-1,0.1-2.1-0.1-3.1c-0.2-1.5,0.5-2.1,1.9-1.9
			c1.3,0.2,2.3-0.1,2-1.8c-0.2-1.4,0.5-1.9,1.8-1.7c2,0.4,2.3-0.7,2.2-2.4c-0.1-0.8,0.1-1.5-0.1-2.3c-0.2-1.6,0.3-2.5,2.1-2.2
			c1.2,0.2,2-0.3,1.8-1.7c-0.3-1.7,0.7-1.9,2-1.8c1.4,0.2,2.1-0.3,1.9-1.8c-0.2-1.5,0.7-1.8,1.9-1.6c1.8,0.3,2.2-0.6,2.1-2.2
			c-0.1-0.8,0.1-1.7-0.1-2.6c-0.2-1.5,0.3-2.3,2-2.1c1.3,0.2,2.2-0.2,2-1.8c-0.2-1.4,0.5-1.8,1.8-1.7c0.8,0,2.2,0.6,2.1-1
			c-0.2-2,0.6-2.6,2.5-2.4c1.1,0.2,1.7-0.4,1.4-1.5c-0.3-1.7,0.6-2.1,2.1-1.9c1.2,0.2,2-0.2,1.8-1.7c-0.2-1.5,0.6-2,2-1.8
			c1.3,0.2,2.2-0.2,2-1.8c-0.2-1.4,0.6-1.8,1.9-1.7c1.5,0.2,2.3-0.3,2.1-2c-0.2-1.3,0.6-1.5,1.8-1.5c1.1,0.1,2.2-0.1,3.4,0
			c1.7,0.1,3.2,0.2,2.8-2.3c-0.2-1.3,1-1.2,1.8-1.1c1.4,0.1,2.3-0.3,2.1-2c-0.2-1.3,0.6-1.5,1.8-1.5c1.4,0.1,2.9-0.1,4.4,0.1
			c1.1,0.1,1.9-0.3,1.7-1.5c-0.3-1.8,0.7-2.1,2.1-1.9c1.2,0.2,2.1-0.2,1.8-1.6c-0.3-1.4,0.6-2,2-1.9c1,0.1,2.1,0,3.1,0
			c1.7,0.1,3.2,0.2,2.8-2.3c-0.2-1.5,1.2-1.2,2-1.1c1.2,0.1,2.1-0.2,1.9-1.7c-0.3-1.6,0.6-1.9,2-1.8c2.6,0.1,5.2-0.1,7.7,0.1
			c1.5,0.1,2.3-0.3,2.1-2c-0.2-1.3,0.6-1.5,1.7-1.5c1.1,0.1,2.2-0.1,3.4,0c1.7,0.1,3.2,0.2,2.8-2.3c-0.2-0.9,0.5-1.2,1.3-1.2
			c1.2,0,2.4-0.1,3.6,0c1.8,0.1,3.3,0.2,2.9-2.4c-0.2-1.1,0.9-1,1.7-1c2.7,0,5.3-0.1,8,0c1.4,0.1,2.4-0.2,2.1-1.9
			c-0.2-1.3,0.5-1.6,1.7-1.6c2.7,0.1,5.3-0.1,8,0.1c1.4,0.1,2.4-0.2,2.1-2c-0.2-1.3,0.6-1.5,1.8-1.5c12,0,23.9,0,35.9,0
			c1.2,0,1.8,0.4,1.7,1.6c-0.2,1.5,0.6,1.9,2,1.9c2.7-0.1,5.3,0,8-0.1c1.2-0.1,2.1,0.2,1.9,1.7c-0.3,1.5,0.6,1.9,1.9,1.8
			c2.7-0.1,5.3,0,8-0.1c1.2,0,2.1,0.2,1.9,1.7c-0.2,1.5,0.6,1.9,2,1.8c1-0.1,2.1,0,3.1,0c1.7-0.1,3.2-0.2,2.8,2.3
			c-0.2,1.3,1,1.1,1.8,1.1c2.7,0,5.3,0.1,8,0c1.3-0.1,2.2,0.3,2,1.8c-0.2,1.4,0.6,1.8,1.8,1.7c1-0.1,2.1,0.1,3.1,0
			c1.8-0.1,3.4-0.2,2.9,2.4c-0.2,1.1,0.9,1.1,1.6,1c1.5-0.2,2.5,0.2,2.3,2.1c-0.2,1.1,0.5,1.4,1.6,1.4c1.1-0.1,2.2,0.1,3.4,0
			c1.8-0.1,3.3-0.1,2.9,2.4c-0.2,1.2,0.9,1.1,1.6,1c1.4-0.1,2.6,0.1,2.3,2c-0.2,1.1,0.4,1.5,1.5,1.5c1.1-0.1,2.2,0.1,3.4,0
			c1.7-0.1,3.4-0.2,3,2.4c-0.2,1.1,0.8,1.1,1.6,1c1.5-0.1,2.6,0.1,2.3,2c-0.2,1.1,0.5,1.5,1.5,1.4c1.1-0.1,2.2,0,3.4,0
			c1.7-0.1,3.4-0.3,3,2.3c-0.2,1.1,0.8,1.2,1.6,1.1c1.5-0.1,2.6,0.1,2.3,2c-0.3,1.7,1,1.4,2,1.4c1.2-0.1,2.1,0.1,1.9,1.6
			c-0.2,1.5,0.5,2,1.9,1.9c1.3-0.2,2.3,0.1,2,1.8c-0.2,1.4,0.5,1.8,1.8,1.8c0.8,0,2.1-0.4,2,0.9c-0.2,2.3,0.8,2.9,2.8,2.6
			c1.1-0.2,1.3,0.7,1.2,1.5c-0.2,1.7,0.6,2.2,2.1,2c1.5-0.2,2,0.5,1.9,1.9c-0.1,0.8,0.1,1.7-0.1,2.6c-0.2,1.7,0.2,2.7,2.2,2.4
			c1.3-0.2,2,0.3,1.8,1.7c-0.2,1.6,0.7,1.9,2,1.8c1.4-0.2,2.2,0.3,1.9,1.8c-0.2,1.2,0.5,1.8,1.7,1.6c2.1-0.4,2.5,0.8,2.3,2.5
			c-0.1,0.5,0.1,1,0,1.5c-0.2,1.9,0.1,3.3,2.5,2.8c1.1-0.2,1.6,0.4,1.4,1.5c-0.2,1.4,0.3,2.2,1.9,2c1.8-0.3,2.3,0.6,2.1,2.2
			c-0.1,0.7,0.1,1.4-0.1,2.1c-0.3,1.9,0.3,3,2.4,2.6c1.1-0.2,1.7,0.4,1.5,1.5c-0.2,1.7,0.6,2.2,2.1,2s2,0.5,1.9,1.9
			c-0.1,1,0.1,2.1-0.1,3.1c-0.2,1.5,0.5,2.1,1.9,1.9c1.9-0.3,2.2,0.7,2,2.3c-0.1,0.6,0.1,1.2,0,1.8c-0.2,0.7-0.1,1.5,0.2,2.2h132.8
			c0-2,0-4-0.1-6c-0.1-1.4,0.4-2.2,1.9-2c1.5,0.2,2.3-0.3,2.1-2s1-1.5,2-1.5c7,0,13.9,0,20.9,0c26.8,0,53.6,0,80.3,0
			c1.6,0,3.2,0.2,2.8-2.3c-0.2-1.3,0.9-1.2,1.8-1.1c1.8,0.2,2.3-0.5,2.1-2.2c-0.1-0.8,0.1-1.5-0.1-2.3c-0.2-1.7,0.2-2.7,2.2-2.4
			c1.6,0.3,1.9-0.6,1.8-2c-0.1-0.7,0.1-1.4,0-2.1c-0.2-1.9,0.1-3.3,2.5-2.9c1.1,0.2,1.5-0.5,1.4-1.5c-0.1-0.9,0.1-1.8,0-2.6
			c-0.3-2,0.2-3.2,2.5-2.7c0.9,0.2,1.5-0.3,1.4-1.3c-0.2-1.7,0.5-2.4,2.2-2.1c1.3,0.2,1.9-0.4,1.8-1.8c-0.1-0.9,0.1-1.9-0.1-2.8
			c-0.2-1.8,0.4-2.6,2.3-2.3c1.4,0.2,1.8-0.6,1.7-1.8c-0.1-0.9,0.1-1.9-0.1-2.8c-0.2-1.6,0.3-2.5,2.1-2.2c1.5,0.3,2-0.5,1.9-1.9
			c-0.1-1,0.1-2.1-0.1-3.1c-0.1-1.4,0.4-2.1,1.9-1.9c1.3,0.2,2.3-0.1,2-1.8c-0.2-1.4,0.5-1.9,1.8-1.7c2,0.4,2.3-0.7,2.2-2.4
			c-0.1-0.8,0.1-1.5-0.1-2.3c-0.2-1.6,0.3-2.5,2.1-2.2c1.5,0.3,2-0.6,1.9-2c-0.1-0.9,0.1-1.9-0.1-2.8c-0.2-1.4,0.2-2.4,1.9-2.1
			c1.3,0.2,2.2-0.2,2-1.8c-0.2-1.4,0.6-1.9,1.9-1.7c1.8,0.3,2.3-0.6,2.1-2.2c-0.1-0.8,0.1-1.7-0.1-2.6c-0.2-1.4,0.2-2.4,1.9-2.1
			c1.9,0.3,2.2-0.7,2-2.3c-0.1-0.8,0.1-1.5-0.1-2.3c-0.3-1.8,0.4-2.6,2.3-2.3c1.4,0.2,1.8-0.5,1.7-1.8c-0.1-0.8,0.1-1.8-0.1-2.6
			c-0.2-1.8,0.2-2.8,2.3-2.5c1.2,0.2,1.8-0.4,1.7-1.6c-0.1-0.9,0.1-1.7,0-2.6c-0.2-1.8,0.1-3.1,2.4-2.7c1.3,0.2,1.7-0.5,1.5-1.7
			c-0.1-0.9,0.1-1.7-0.1-2.6c-0.3-2,0.3-3,2.5-2.6c1.1,0.2,1.6-0.4,1.4-1.4c-0.3-1.7,0.5-2.2,2.1-2c1.2,0.2,2.1-0.2,1.9-1.7
			c-0.2-1.5,0.6-1.8,2-1.8c4,0.1,7.9,0.1,11.9,0c1.1,0,2.1,0.1,1.9,1.6c-0.2,1.5,0.5,2,1.9,1.9c1.3-0.2,2.3,0.1,2,1.8
			c-0.2,1.4,0.5,1.9,1.8,1.7c2-0.3,2.4,0.7,2.2,2.4c-0.1,0.8,0.1,1.5-0.1,2.3c-0.2,1.7,0.4,2.5,2.1,2.2c1.5-0.3,2,0.6,1.8,2
			c-0.1,0.9,0.1,1.9-0.1,2.8c-0.2,1.5,0.3,2.4,2,2.1c1.6-0.3,2.2,0.5,2,2.1c-0.1,0.8,0.1,1.5-0.1,2.3c-0.2,1.7,0.1,2.9,2.3,2.5
			c1.4-0.3,1.8,0.5,1.7,1.8c-0.1,0.9,0.1,1.9-0.1,2.8c-0.2,1.6,0.3,2.5,2.1,2.2c1.5-0.2,2,0.5,1.9,1.9c-0.1,0.9,0.1,1.9-0.1,2.8
			c-0.2,1.7,0.5,2.4,2.2,2.2c1.3-0.2,2,0.3,1.8,1.7c-0.2,1.4,0.5,1.9,1.8,1.7c1.7-0.3,2.3,0.5,2.1,2.2c-0.1,0.9,0.1,1.9-0.1,2.8
			c-0.2,1.4,0.4,2.1,1.9,1.9c1.9-0.3,2.2,0.7,2.1,2.3c-0.1,0.7,0.1,1.4,0,2.1c-0.3,1.9,0.3,3,2.5,2.6c1.1-0.2,1.6,0.4,1.5,1.4
			c-0.2,1.4,0.3,2.2,1.8,2c1.8-0.3,2.3,0.6,2.1,2.2c-0.1,0.7,0.1,1.4,0,2.1c-0.2,1.9,0.2,3,2.4,2.6c1.1-0.2,1.6,0.3,1.5,1.4
			c-0.1,1,0.1,2.1-0.1,3.1c-0.2,1.8,0.4,2.6,2.3,2.3c1.4-0.2,1.8,0.6,1.7,1.8c-0.1,0.9,0.1,1.7-0.1,2.6c-0.2,1.8,0.3,2.8,2.3,2.5
			c1.2-0.2,1.8,0.5,1.6,1.7c-0.2,1.3,0.3,2,1.7,1.8c1.9-0.3,2.5,0.5,2.3,2.3c-0.1,0.7,0.1,1.4-0.1,2.1c-0.2,1.7,0.1,2.9,2.3,2.6
			c1.4-0.3,1.8,0.6,1.7,1.9c-0.1,0.9,0.1,1.9-0.1,2.8c-0.2,1.6,0.3,2.5,2.1,2.2c1.5-0.3,2,0.5,1.9,1.9c-0.1,0.9,0.1,1.9-0.1,2.8
			c-0.1,1.4,0.2,2.4,1.9,2.1c1.6-0.3,2.3,0.4,2,2c-0.2,1.1,0.5,1.5,1.5,1.4c0.7-0.1,1.4,0,2.1,0c33.2,0,66.5,0,99.7,0
			c1.7,0,3.1-0.1,2.8,2.3c-0.2,1.3,1,1.2,1.8,1.1c1.8-0.3,2.1,0.7,2.1,2.3c-0.1,1.9-0.1,3.8-0.1,5.7h52.7V637.3H-488.4z"/>
		<path class="st2" d="M333.5,767.8c0-0.8,0.1-1.5,0.2-2.3C333.6,766.2,333.5,767,333.5,767.8L333.5,767.8z"/>
		<path class="st2" d="M184.2,726.5c0.1,0.6,0.1,1.1,0.2,1.7C184.3,727.7,184.3,727.1,184.2,726.5L184.2,726.5z"/>
		<path class="st2" d="M333.9,764.9c-0.1,0.2-0.2,0.3-0.2,0.5C333.7,765.3,333.8,765.1,333.9,764.9z"/>
		<path class="st2" d="M188.9,720c-0.5,0.4-0.6,1.2-0.6,2.9l0,0C188.3,721.1,188.3,720.3,188.9,720z"/>
		<path class="st2" d="M181.2,723.1c0.2-0.1,0.3-0.1,0.4-0.1C181.4,723,181.3,723,181.2,723.1z"/>
		<path class="st2" d="M169.5,726.6c0.1,0,0.2-0.1,0.4-0.1C169.7,726.6,169.6,726.6,169.5,726.6z"/>
		<path class="st2" d="M192,782.3l0.3-0.5l0,0L192,782.3z"/>
		<path class="st2" d="M164.9,730.7c-0.3,0.5-0.3,1.2-0.3,2.6l0,0C164.6,731.9,164.6,731.1,164.9,730.7z"/>
		<path class="st2" d="M157.5,733.6c-0.1,0.1-0.2,0.2-0.3,0.3C157.2,733.7,157.4,733.6,157.5,733.6z"/>
		<path class="st2" d="M184.2,729.1c0.1-0.2,0.1-0.4,0.1-0.6C184.3,728.7,184.3,728.9,184.2,729.1z"/>
		<path class="st2" d="M196,720c0.1,0.5,0.1,0.9,0.1,1.4C196.1,720.9,196.1,720.5,196,720z"/>
		<path class="st2" d="M180.2,726.4l-3.7,0.3L180.2,726.4L180.2,726.4z"/>
		<path class="st2" d="M156.9,734.5c-0.1,0.8-0.2,1.5-0.1,2.3l0,0C156.8,736,156.8,735.2,156.9,734.5z"/>
		<path class="st2" d="M166.7,730.1l0.6-0.1L166.7,730.1z"/>
		<path class="st2" d="M203.9,780.2c0.1-0.5,0.1-1.1,0.1-1.6l0,0C204.1,779.2,204.1,779.7,203.9,780.2z"/>
		<path class="st2" d="M333.9,764.9c0.1-0.2,0.2-0.3,0.4-0.3C334.1,764.7,334,764.8,333.9,764.9z"/>
		<path class="st2" d="M308.3,798.8c-0.3,0-0.6,0.1-0.9,0.1C307.7,798.8,308,798.8,308.3,798.8z"/>
		<path class="st2" d="M243.2,757.1L243.2,757.1c-0.3,0-0.5,0.1-0.8,0.1C242.6,757.1,242.9,757.1,243.2,757.1z"/>
		<path class="st2" d="M250.9,746.9l0.2-2.8l0,0L250.9,746.9z"/>
		<path class="st2" d="M235.5,762.7c0-0.4-0.1-0.7-0.1-1.1l0,0C235.5,762,235.5,762.3,235.5,762.7z"/>
		<path class="st2" d="M215.9,773c0-0.4-0.1-0.7-0.1-1.1l0,0C215.8,772.3,215.9,772.6,215.9,773z"/>
		<path class="st2" d="M211.9,775l-0.2,2.8L211.9,775L211.9,775z"/>
		<path class="st2" d="M231.3,767.5l0.2-2.8h0.1h-0.1L231.3,767.5z"/>
		<path class="st2" d="M223.7,769.1c0-0.3,0-0.6-0.1-0.8l0,0C223.7,768.6,223.7,768.9,223.7,769.1z"/>
		<path class="st2" d="M321.5,777.5c0.2-1,0.3-2,0.1-2.9l0,0C321.8,775.5,321.7,776.5,321.5,777.5z"/>
		<path class="st2" d="M322.9,771.4c-0.9,0.2-1,1-1.3,3.2l0,0C321.8,772.4,321.9,771.6,322.9,771.4z"/>
		<path class="st2" d="M325.7,769.8c0,0.5,0,1,0.1,1.7l0,0C325.7,770.7,325.7,770.2,325.7,769.8z"/>
		<path class="st2" d="M318,775.4c-0.2,0.4-0.3,1.1,0,2.1l0,0C317.7,776.5,317.7,775.8,318,775.4z"/>
		<path class="st2" d="M318.8,774.8c0.2-0.1,0.5-0.1,0.7-0.1C319.2,774.7,319,774.7,318.8,774.8z"/>
		<path class="st2" d="M239.4,759c0-0.3-0.1-0.7-0.1-1l0,0C239.4,758.3,239.5,758.6,239.4,759z"/>
		<path class="st2" d="M168.8,726.9c-0.3,0.5-0.1,1.3-0.2,3l0.1,0.1l-0.1-0.1C168.7,728.3,168.5,727.4,168.8,726.9z"/>
		<path class="st2" d="M312.9,781.3c-1-0.1-2-0.5-2.7,0.8l0,0C310.8,780.9,311.9,781.2,312.9,781.3z"/>
		<path class="st2" d="M182,723c0.3,0,0.6,0.1,1,0.1C182.7,723,182.4,723,182,723z"/>
		<path class="st3" d="M78.2,811.2c-0.2-1.5,0.3-2.3,2-2.1c1.7,0.3,2.1-0.6,2-2.1c-0.1-0.8,0.1-1.7-0.1-2.6
			c-0.2-1.7,0.4-2.4,2.2-2.2c1.3,0.2,1.9-0.4,1.8-1.8c-0.2-1.4,0.7-1.9,1.9-1.7c1.9,0.3,2.2-0.7,2.1-2.3c-0.1-0.7,0.1-1.4,0-2.1
			c-0.2-1.7,0.1-2.9,2.3-2.6c1.2,0.2,1.8-0.4,1.7-1.6s0.4-2,1.7-1.8c1.9,0.3,2.4-0.7,2.2-2.4c-0.1-0.8,0.1-1.5-0.1-2.3
			c-0.2-1.7,0.4-2.4,2.1-2.2c1.3,0.2,2-0.3,1.9-1.7c-0.2-1.7,0.8-1.9,2.1-1.8c1.2,0.1,2-0.3,1.8-1.7c-0.2-1.4,0.7-1.8,1.9-1.7
			c1.8,0.3,2.2-0.7,2.1-2.3c-0.1-0.8,0.1-1.7-0.1-2.6c-0.2-1.5,0.3-2.3,2-2.1c1.4,0.2,2.2-0.3,2-1.8c-0.2-1.8,1.1-1.5,2.2-1.6
			c1.5-0.1,1.7,0.8,1.7,2c0,0.4,0,0.8,0,1.2c0,1.2,0.1,2.4,0.1,3.7h1.1h0.6h0.6c1.1,0.1,1.5-0.4,1.5-1.5c0-0.5,0-0.9,0-1.3
			c0-0.5,0-0.9,0-1.4c0-0.9,0.1-1.8,0.1-2.6c-0.6,0-1.1-0.1-1.8-0.1c-0.2,0-0.4,0-0.6,0c-1.2,0.1-1.7-0.5-1.7-1.7
			c0.1-1,0.4-1.7,1.5-1.5c1.8,0.2,2.7-0.4,2.6-2.4c-0.1-1.1,0.8-1.2,1.6-1.1c1.5,0.1,2.3-0.3,2.1-2c-0.1-1.5,1-1.6,2.1-1.5
			c1.2,0.1,2.1-0.2,1.9-1.7c-0.2-1.4,0.8-1.7,2-1.6c1.2,0.1,2-0.3,1.9-1.7c-0.2-1.5,0.7-1.9,2-1.8c1.3,0.1,2.7,0,4.1,0
			c0.7,0,1.7,0,1.5-0.9c-0.2-3.6,2.4-2.5,4.2-2.6c-0.2-1.2-0.2-2.2,0.3-2.7c0.2-0.2,0.4-0.4,0.7-0.5c0.1-0.1,0.2-0.1,0.3-0.1
			c0.3-0.1,0.5-0.1,0.8-0.1c0.3,0,0.7,0.1,1,0.1c1.5,0.2,3.1,0.2,4.6,0.1c0.1-0.7,0.1-1.3,0.1-1.8c0-0.2,0-0.3,0-0.4
			c0-0.1,0-0.3,0.1-0.4c0-0.1,0.1-0.2,0.1-0.3c0.3-0.9,1-0.8,3.9-0.8c-0.1-0.8,0-1.5,0.1-2.3c0-0.1,0.1-0.2,0.1-0.3
			c0.1-0.1,0.1-0.2,0.2-0.3c0.1-0.1,0.2-0.2,0.3-0.3c0.2-0.1,0.3-0.2,0.5-0.2c0.8-0.1,1.6-0.2,2.4-0.1h4.3c-0.1-1.4-0.1-2.2,0.3-2.6
			c0.2-0.3,0.5-0.5,0.9-0.5h0.1c0.3-0.1,0.5-0.1,0.7-0.1l0.6-0.1l1.3-0.1l0.1,0.1l-0.1-0.1c0.1-1.8-0.1-2.6,0.2-3
			c0.1-0.1,0.1-0.1,0.1-0.1l0,0c0.1-0.1,0.1-0.1,0.2-0.1c0.1-0.1,0.3-0.1,0.4-0.1c0.1,0,0.2-0.1,0.4-0.1h0.4h0.5h1.4
			c1.4,0,2.8,0.1,4.3,0.1l3.7-0.3c0.1-2.2,0.2-3,1-3.3c0.2-0.1,0.3-0.1,0.4-0.1c0.2,0,0.3,0,0.5,0c0.3,0,0.6,0.1,1,0.1
			c0.4,0,0.8,0.1,1.3,0.2l3.9-0.3c0-1.8,0.1-2.6,0.6-2.9c0.2-0.1,0.5-0.2,0.7-0.2c0.3,0,0.5,0,0.8,0s0.7,0.1,1.1,0.1l0.7,0.1
			l3.9-0.2l0,0c0.1-0.7,0.1-1.2,0.1-1.6c0-0.3,0.1-0.5,0.1-0.7c0.1-0.2,0.1-0.4,0.2-0.5c0.4-0.6,1.2-0.6,3.1-0.6c2.2,0,4.5,0,6.7,0
			c1,0,1.8-0.3,1.7-1.4c-0.2-1.8,0.9-1.9,2.3-1.9c2.5,0.1,5,0,7.5,0c1.3,0,2.2-0.3,2.1-1.8c-0.1-1.4,0.6-1.8,1.9-1.8
			c9.1,0.1,18.2,0.1,27.4,0c1.4,0,2.1,0.4,2,1.9c-0.1,1.2,0.6,1.7,1.7,1.7c0.3,0,0.5,0,0.8,0c5.3,0.1,5.3,0.1,5.3,5.3
			c0,1.4,0,2.9,0,4.4c0,2,0.7,4.3-2.8,4c-1.1-0.1-0.9,1-0.9,1.8c0,2.8,0,5.7,0,8.5h0.1v0.1c0.5,0,1-0.1,1.5-0.1c0.2,0,0.4,0,0.5,0.1
			c1.5,0.2,1.9-0.6,1.9-2c-0.1-2.2,0.1-4.3,0-6.5c-0.1-1.4,0.4-2.1,1.9-1.9c1.9,0.3,2.1-0.8,2.1-2.3c-0.1-3.1,0-6.2-0.1-9.3
			c0-1.2-0.1-2.2,1.7-2.2c1.3,0.1,2.5,0,2.2,1.8c-0.2,1.2,0.5,1.7,1.7,1.6c1.3-0.1,2.6,0.1,3.9-0.1c1.5-0.1,2.5,0.2,2.3,2.1
			c-0.2,1.2,0.6,1.4,1.6,1.4c1-0.1,2.1,0,3.1,0c1.7-0.1,3.6-0.4,3.2,2.4c-0.1,0.9,0.7,1,1.4,1c1.1,0,2.2,0.1,3.4,0
			c1.7-0.1,3.4-0.3,3,2.4c-0.1,0.9,0.7,1,1.4,1c1.3,0,2.6,0.1,3.9,0c1.5-0.1,2.8,0,2.5,2.1c-0.2,1.2,0.6,1.5,1.6,1.3
			c1.8-0.3,2.6,0.4,2.3,2.2c-0.1,1.1,0.6,1.2,1.5,1.2c1,0,2.1,0,3.1,0c1.7-0.1,3.5-0.4,3.3,2.4c-0.1,1.3,1.2,1,2,1
			c1.2,0,2.1,0.2,1.9,1.7c-0.2,1.5,0.6,2,2,1.9c1-0.1,2.1,0,3.1,0c1.6-0.1,3.2-0.2,2.8,2.3c-0.2,1.3,0.9,1.2,1.8,1.2
			c1.4-0.1,2.4,0.3,2.1,2c-0.2,1.1,0.5,1.5,1.5,1.4c1.4-0.1,2.6,0.1,2.3,2c-0.2,1.1,0.5,1.5,1.5,1.5c1,0,2.2,0.1,3.4,0
			c1.8-0.1,3.3-0.2,3,2.4c-0.2,1.3,1.1,1.1,1.9,1c1.4-0.1,2.2,0.3,2,1.9c-0.2,1.6,0.8,1.7,2,1.6c1.3-0.1,2.1,0.3,2,1.8
			c-0.1,1.5-0.8,1.8-2,1.6c-1.5-0.2-2.3,0.4-2.1,2c0.2,1.2-0.6,1.4-1.6,1.4c-0.9-0.1-1.7,0-2.6,0c-1.5,0-2.4,0-2.9,0.3
			c-0.2,0.1-0.3,0.2-0.4,0.3c-0.1,0.2-0.2,0.3-0.2,0.5c-0.2,0.8-0.2,1.5-0.2,2.3h0.1v0.1c0.8,0,1.7,0,2.5,0h1.3c0.4,0,0.9,0,1.3,0.1
			c1.6,0.1,2.9,0,2.9-2.1c0-1,0.8-1.1,1.7-1.1c2.7,0,5.5,0,8.3,0c1,0,1.8,0.2,1.7,1.4c-0.1,1.5,0.6,2,2,1.9c1.6-0.2,2.2,0.6,2.1,2.1
			c-0.1,0.9,0.1,1.9-0.1,2.8c-0.2,1.5,0.4,2.3,2,2.1c0.1,0,0.2,0,0.3,0c2.6-0.3,0.6,2.8,2.3,3.2c1.3,0.3,3.4-0.6,3.2,2.1
			c-0.1,1.1,0.5,1.6,1.5,1.5c1.9-0.3,2.4,0.7,2.2,2.4c-0.1,0.6,0.1,1.2,0,1.8c-0.2,1.8,0.3,2.8,2.4,2.6c0.8-0.1,1.7,0,1.6,1.1
			c-0.2,2,0.6,2.7,2.5,2.4c1.1-0.1,1.5,0.5,1.5,1.5c0,0.9,0.1,1.7,0,2.6c-0.2,1.7,0.1,2.9,2.3,2.6c1.1-0.2,1.6,0.4,1.5,1.5
			c-0.1,1.4,0.4,2.2,1.9,2c1.8-0.2,2.3,0.7,2.1,2.3c-0.1,0.9,0,1.9,0,2.8c-0.1,1.1,0.4,1.9,1.6,1.7c2-0.3,2.3,0.8,2.2,2.5
			c0,0.1,0,0.2,0,0.3h8.2c-0.3-0.7-0.3-1.4-0.2-2.2c0.1-0.6-0.1-1.2,0-1.8c0.2-1.5-0.2-2.5-2-2.3c-1.4,0.2-2.1-0.4-1.9-1.9
			c0.1-1-0.1-2.1,0.1-3.1c0.1-1.4-0.4-2.1-1.9-1.9c-1.5,0.2-2.3-0.3-2.1-2c0.2-1.1-0.4-1.7-1.5-1.5c-2.2,0.4-2.7-0.7-2.4-2.6
			c0.1-0.7-0.1-1.4,0.1-2.1c0.2-1.6-0.3-2.5-2.1-2.2c-1.5,0.3-2-0.5-1.9-2c0.1-1.1-0.3-1.7-1.4-1.5c-2.4,0.5-2.7-0.9-2.5-2.8
			c0.1-0.5-0.1-1,0-1.5c0.2-1.8-0.2-2.9-2.3-2.5c-1.2,0.2-1.8-0.4-1.7-1.6c0.2-1.5-0.5-2-1.9-1.8c-1.3,0.2-2.2-0.2-2-1.8
			c0.2-1.4-0.5-1.9-1.8-1.7c-2,0.3-2.3-0.8-2.2-2.4c0.1-0.8-0.1-1.7,0.1-2.6c0.2-1.4-0.4-2.1-1.9-1.9c-1.4,0.2-2.3-0.3-2.1-2
			c0.1-0.8-0.1-1.7-1.2-1.5c-2,0.3-2.9-0.3-2.8-2.6c0.1-1.3-1.2-0.9-2-0.9c-1.3,0.1-2-0.3-1.8-1.8c0.3-1.7-0.7-1.9-2-1.8
			c-1.4,0.2-2.1-0.4-1.9-1.9c0.2-1.5-0.7-1.7-1.9-1.6c-1,0.1-2.3,0.3-2-1.4c0.3-1.9-0.8-2.1-2.3-2c-0.8,0.1-1.8,0-1.6-1.1
			c0.4-2.7-1.3-2.4-3-2.3c-1.1,0.1-2.2-0.1-3.4,0c-1.1,0.1-1.7-0.3-1.5-1.4c0.3-1.9-0.8-2.1-2.3-2c-0.8,0.1-1.8,0.1-1.6-1
			c0.4-2.6-1.3-2.5-3-2.4c-1.1,0.1-2.2-0.1-3.4,0s-1.7-0.4-1.5-1.5c0.3-2-0.8-2.1-2.3-2c-0.7,0.1-1.8,0.2-1.6-1
			c0.4-2.5-1.1-2.5-2.9-2.4c-1.1,0.1-2.2-0.1-3.4,0c-1,0.1-1.8-0.3-1.6-1.4c0.3-1.9-0.7-2.2-2.3-2.1c-0.8,0.1-1.8,0.1-1.6-1
			c0.4-2.6-1.2-2.5-2.9-2.4c-1,0.1-2.1-0.1-3.1,0c-1.2,0.1-2-0.2-1.8-1.7c0.2-1.5-0.6-1.9-2-1.8c-2.7,0.1-5.3,0.1-8,0
			c-0.8,0-2,0.2-1.8-1.1c0.4-2.5-1.2-2.4-2.8-2.3c-1,0.1-2.1-0.1-3.1,0c-1.4,0.1-2.2-0.3-2-1.8c0.2-1.5-0.6-1.7-1.9-1.7
			c-2.7,0.1-5.3-0.1-8,0.1c-1.4,0.1-2.2-0.3-1.9-1.8c0.2-1.4-0.6-1.7-1.9-1.7c-2.7,0.1-5.3-0.1-8,0.1c-1.4,0.1-2.2-0.3-2-1.9
			c0.2-1.2-0.5-1.6-1.7-1.6c-12,0.1-23.9,0.1-35.9,0c-1.1,0-1.9,0.2-1.8,1.5c0.3,1.7-0.7,2-2.1,2c-2.7-0.1-5.3,0-8-0.1
			c-1.1,0-1.9,0.3-1.7,1.6c0.3,1.8-0.7,2-2.1,1.9c-2.7-0.1-5.3,0-8,0c-0.8,0-1.8-0.1-1.7,1c0.4,2.6-1.2,2.5-2.9,2.4
			c-1.2-0.1-2.4,0-3.6,0c-0.8,0-1.4,0.3-1.3,1.2c0.4,2.5-1.2,2.3-2.8,2.3c-1.1-0.1-2.2,0.1-3.4,0s-1.9,0.2-1.7,1.5
			c0.3,1.7-0.6,2-2.1,2c-2.6-0.1-5.2,0.1-7.7-0.1c-1.3-0.1-2.2,0.3-2,1.8c0.2,1.5-0.6,1.7-1.9,1.7c-0.9-0.1-2.2-0.4-2,1.1
			c0.3,2.5-1.2,2.4-2.8,2.3c-1-0.1-2.1,0.1-3.1,0c-1.4-0.1-2.2,0.3-2,1.9s-0.6,1.8-1.8,1.6c-1.4-0.2-2.4,0.2-2.1,1.9
			c0.2,1.3-0.6,1.6-1.7,1.5c-1.4-0.1-2.9,0.1-4.4-0.1c-1.1-0.1-1.9,0.2-1.8,1.5c0.2,1.7-0.7,2.1-2.1,2c-0.8-0.1-2-0.3-1.8,1.1
			c0.4,2.5-1.1,2.4-2.8,2.3c-1.1-0.1-2.2,0.1-3.4,0s-1.9,0.1-1.8,1.5c0.2,1.7-0.6,2.2-2.1,2c-1.2-0.2-2.1,0.2-1.9,1.7
			c0.3,1.6-0.7,1.9-2,1.8s-2.2,0.2-2,1.8c0.2,1.4-0.6,1.8-1.8,1.7c-1.4-0.2-2.3,0.2-2.1,1.9c0.2,1.1-0.4,1.7-1.4,1.5
			c-1.9-0.3-2.7,0.4-2.5,2.4c0.1,1.6-1.3,1-2.1,1c-1.3-0.1-2,0.3-1.8,1.7c0.2,1.6-0.7,2-2,1.8c-1.7-0.2-2.1,0.6-2,2.1
			c0.1,0.8-0.1,1.7,0.1,2.6c0.2,1.6-0.3,2.5-2.1,2.2c-1.2-0.2-2.1,0.1-1.9,1.6c0.2,1.5-0.5,2-1.9,1.8c-1.3-0.2-2.2,0.1-2,1.8
			c0.2,1.4-0.6,1.9-1.8,1.7c-1.8-0.3-2.3,0.6-2.1,2.2c0.1,0.8-0.1,1.5,0.1,2.3c0.2,1.7-0.2,2.7-2.2,2.4c-1.3-0.2-2,0.3-1.8,1.7
			c0.2,1.6-0.7,1.9-2,1.8c-1.4-0.2-2.1,0.4-1.9,1.9c0.1,1-0.1,2.1,0.1,3.1c0.1,1.4-0.4,2.1-1.9,1.9c-1.5-0.2-2.3,0.3-2.1,2
			c0.2,1.1-0.4,1.7-1.4,1.5c-2.2-0.4-2.7,0.8-2.5,2.6c0.1,0.8-0.1,1.7,0.1,2.6c0.1,1.2-0.3,1.9-1.6,1.7c-2.3-0.4-2.5,1-2.4,2.7
			c0.1,0.9,0,1.9,0,2.8c0,0.3,0,0.5-0.1,0.7h4C78.3,811.7,78.3,811.4,78.2,811.2z"/>
		<path class="st4" d="M90.1,810.2c-0.1-0.8,0.1-1.5,0-2.3c-0.2-1.6,0.3-2.5,2.1-2.3c1.1,0.2,1.8-0.3,1.7-1.6
			c-0.1-0.3-0.1-0.7,0.1-1c2.5-0.6,3.7-2.9,5.6-4.1c1.1-0.7,2.3-0.5,2.2-2.3c-0.2-1.9,1.4-1.3,2.4-1.4c1.2-0.1,1.7,0.5,1.7,1.7
			c0,1.3-0.4,2-1.8,1.8c-1.8-0.3-2.2,0.8-2.1,2.3c0.1,0.8-0.1,1.7,0,2.6c0.1,1.4-0.3,2.4-2,2.2c-1.3-0.1-2.2,0.2-2.1,1.8
			c0.2,1.3-0.7,1.6-1.8,1.5c-1.7-0.2-2.4,0.6-2.2,2.3c0,0.2,0,0.4,0,0.5h204.3c0.1-2.7,0.4-2.7,3.7-2.8c0.1-2.4,0.3-4.8,0.1-7.2
			c-0.2-2.4,0.4-3.6,3-3.2c0.3,0.1,0.7,0.1,1,0c0-2.2-0.1-4.4-0.1-6.7c0-4.4-0.3-3.6,3.7-3.7l0.5-6.4l0,0c0.7-1.2,1.7-0.9,2.7-0.8
			c0.3,0.1,0.6,0,0.9-0.1c-0.5-1.9,0.2-2.6,1.1-2.9c0.4-0.1,0.7-0.2,1.1-0.3h0.1c0.6-0.1,1.2-0.2,1.8-0.5c-0.3-1-0.3-1.7,0-2.1
			c0.1-0.2,0.2-0.3,0.3-0.4c0.2-0.1,0.4-0.2,0.6-0.3c0.2-0.1,0.5-0.1,0.7-0.1c0.7,0,1.4-0.1,2.2-0.2c0.3-2.1,0.4-2.9,1.3-3.2
			c0.9-0.1,1.9-0.1,2.8,0.1c0-0.7-0.1-1.2-0.1-1.7c0-0.3,0-0.6,0.1-0.9c0-0.1,0.1-0.2,0.1-0.3s0.1-0.2,0.1-0.3
			c0.1-0.1,0.1-0.2,0.1-0.2c0.4-0.5,1.3-0.3,3.2-0.3c1.4-0.1,2.9,0,4.3,0c0-0.8,0.1-1.5,0.2-2.3c0.1-0.2,0.1-0.4,0.2-0.5
			c0.1-0.2,0.2-0.3,0.4-0.3c0.5-0.3,1.4-0.3,2.9-0.3c0.9,0,1.7-0.1,2.6,0c1,0.1,1.8-0.2,1.6-1.4c-0.2-1.6,0.5-2.2,2.1-2
			c1.2,0.2,1.9-0.1,2-1.6c0.1-1.5-0.7-2-2-1.8c-1.1,0.1-2.2-0.1-2-1.6c0.2-1.5-0.6-1.9-2-1.9c-0.8,0.1-2,0.3-1.9-1
			c0.3-2.6-1.2-2.5-3-2.4c-1.1,0.1-2.2,0-3.4,0c-1.1,0-1.7-0.4-1.5-1.5c0.3-2-0.9-2.1-2.3-2c-1,0.1-1.7-0.3-1.5-1.4
			c0.2-1.7-0.7-2.1-2.1-2c-0.9,0.1-2,0.1-1.8-1.2c0.4-2.5-1.2-2.3-2.8-2.3c-1,0.1-2.1-0.1-3.1,0c-1.4,0.1-2.2-0.3-2-1.9
			c0.2-1.5-0.7-1.7-1.9-1.7c-0.8,0-2.1,0.3-2-1c0.3-2.8-1.5-2.5-3.3-2.4c-1,0.1-2.1,0-3.1,0c-0.9,0-1.7-0.2-1.5-1.2
			c0.2-1.9-0.6-2.5-2.3-2.2c-1,0.2-1.8-0.2-1.6-1.3c0.3-2.1-1-2.2-2.5-2.1c-1.3,0.1-2.6,0-3.9,0c-0.8,0-1.5-0.2-1.4-1
			c0.4-2.6-1.4-2.4-3-2.4c-1.1,0.1-2.2,0-3.4,0c-0.7,0-1.5-0.1-1.4-1c0.4-2.8-1.4-2.5-3.2-2.4c-1,0.1-2.1,0-3.1,0
			c-1,0-1.8-0.2-1.6-1.4c0.3-1.9-0.8-2.2-2.3-2.1c-1.3,0.1-2.6-0.1-3.9,0.1c-1.2,0.1-1.9-0.4-1.7-1.6c0.2-1.9-0.9-1.8-2.2-1.8
			c-1.7-0.1-1.7,1-1.7,2.2c0.1,3.1-0.1,6.2,0.1,9.3c0.1,1.5-0.2,2.6-2.1,2.3c-1.4-0.2-2,0.5-1.9,1.9c0.1,2.1-0.1,4.3,0,6.5
			c0.1,1.4-0.4,2.1-1.9,2c-0.2,0-0.4,0-0.5-0.1c-0.5,0-1,0.1-1.5,0.1c0,1,0,2,0,3c0,3.7,0,3.7-3.6,4l-0.1,0.2h-0.1h-0.1h-0.1l0,0
			l-0.2,2.8c-0.3,0.4-0.6,0.6-1,0.7c-0.3,0.1-0.5,0.1-0.7,0.1c-0.6-0.1-1.3-0.1-2,0c0,0.4,0,0.8-0.1,1.3c-0.1,0.5,0,0.8,0,1.3
			c0,3.7,0,3.7-3.5,3.9c0,0.1-0.1,0.2-0.1,0.2s-0.2,0.1-0.2,0.1l-0.2,2.7l0,0c-0.2,0.4-0.5,0.6-0.8,0.8c-0.9,0.4-2.1-0.3-2.9,0.1
			c0.1,0.3,0.1,0.7,0.1,1c0,1.1-0.6,1.7-1.4,2c-0.2,0.1-0.5,0.1-0.7,0.1c-0.5,0.1-1,0.1-1.5,0l-0.5,0.6c0.1,0.4,0.1,0.7,0.1,1.1
			c-0.1,1.2-0.7,1.5-1.7,1.7c-0.2,0.1-0.5,0.1-0.7,0.1h-0.7c-0.3,0-0.5,0-0.7,0.1l-0.1,0.2h-0.1h-0.1l-0.2,2.8
			c-1.2,1.4-2.8,0.5-4.3,0.7c-0.3,0.1-0.6,0.1-0.8,0.1c-0.8,0.1-1.7,0-2.5,0c0.1,0.3,0.1,0.6,0.1,0.8c0.1,0.6-0.2,1.2-0.6,1.7
			c-0.2,0.2-0.5,0.4-0.7,0.4c-0.2,0.1-0.4,0.1-0.6,0.1c-0.4,0-0.8,0-1.2-0.1c-1.4-0.2-2.9,0-4.3,0l-0.5,0.6c0.1,0.4,0.1,0.7,0.1,1.1
			c0,1.2-0.7,1.5-1.7,1.7c-0.4,0.1-0.7,0.1-1.1,0.1s-0.7,0-1.1,0.1l-0.1,0.2H212H212h-0.1l-0.2,2.8c-1.1,1.5-2.6,0.5-3.9,0.7
			c-0.6,0.1-1.2,0.1-1.9,0.1s-1.2,0-1.9,0c0.1,0.5,0.1,1.1-0.1,1.6c-0.1,0.4-0.3,0.7-0.5,0.9c-0.2,0.2-0.5,0.3-0.7,0.4
			c-0.6,0.2-1.2,0.2-1.9,0.1c-2.8-0.3-5.6,0-8.4,0l-0.1,0.1l-0.2-0.1l-0.3,0.5v2.1c-1.5,1.6-3.5,0.6-5.2,0.7
			c-1.5,0.1-2.7,0.1-2.5,2.2c0.2,1.7-1.2,1.3-2.2,1.3c-7.9,0-15.8,0-23.7,0h-5.9c-3.6,0-3.6,0-3.4-3.6c-4.6,0.1-9.4,0-14,0.2
			c-2.7,0.1-1.4-2.1-2-3.3c-1-0.1-2-0.1-3-0.2h-1c-3.6,0-3.6,0-3.7-3.5l-3.8-0.1c-0.8,0.1-1.5,0.1-2.3,0.1c-0.3,0-0.7,0.1-1,0.1
			c-0.1,2.9-2.3,3.5-4.4,4.1c-0.2,0.1-0.2,0.6-0.2,1c0.2,1.5-0.6,2-2,1.9c-1.2-0.2-2,0.3-1.9,1.7c0.1,2-1.4,1.4-2.5,1.5
			c-1.4,0.1-1.4-0.8-1.5-1.8c-0.1-1.4,0.7-1.8,1.9-1.7c1.4,0.2,2-0.5,1.9-2c-0.1-0.8,0.1-1.7,0-2.6c-0.1-1.6,0.4-2.5,2.2-2.3
			c0.6,0.1,1.8,0.2,1.7-0.6c-0.2-2.7,1.3-2.8,3.4-3c1.4-0.2,0.4-2.1,0.8-3.2c-0.1-1.2-0.1-2.4-0.1-3.7c0-0.4,0-0.8,0-1.2
			c0-1.2-0.1-2.1-1.7-2c-1.1,0.1-2.4-0.2-2.2,1.6c0.2,1.5-0.6,2-2,1.8c-1.7-0.3-2.1,0.6-2,2.1c0.1,0.8-0.1,1.7,0.1,2.6
			c0.2,1.6-0.3,2.5-2.1,2.3c-1.2-0.2-2.1,0.2-1.9,1.7c0.2,1.4-0.5,1.9-1.8,1.7c-1.3-0.2-2.3,0.1-2.1,1.8c0.2,1.4-0.6,1.9-1.9,1.7
			c-1.8-0.3-2.3,0.5-2.1,2.2c0.1,0.8-0.1,1.5,0.1,2.3c0.2,1.7-0.3,2.6-2.2,2.4c-1.4-0.2-1.9,0.6-1.7,1.8c0.2,1.2-0.4,1.8-1.7,1.6
			c-2.2-0.4-2.5,0.8-2.3,2.6c0.1,0.7-0.1,1.4,0,2.1c0.2,1.5-0.2,2.5-2.1,2.3c-1.2-0.2-2.1,0.3-1.9,1.7c0.2,1.3-0.4,2-1.8,1.8
			c-1.7-0.3-2.3,0.5-2.2,2.2c0.1,0.8-0.1,1.7,0.1,2.6c0.1,1.5-0.4,2.3-2,2.1c-1.7-0.3-2.1,0.6-2,2.1c0,0.2,0.1,0.5,0.1,0.7H90
			C90.2,811.3,90.2,810.7,90.1,810.2z"/>
		<path class="st4" d="M256.5,736.8c-0.5,0-1,0.1-1.5,0.1l0,0C255.5,736.8,256,736.8,256.5,736.8z"/>
		<path class="st5" d="M330,771.4c-1.4,0-2.8,0.1-4.3,0.1c-0.1,3.4-0.1,3.4-4.1,3.1c0.1,1,0.1,2-0.1,2.9c-0.1,0.2-0.2,0.4-0.4,0.6
			c-0.5,0.5-1.5,0.3-3.2-0.4c-0.1,4-0.1,4-4.1,4.1v0.1l0,0c0,0.8,0.1,1.7,0.1,2.5c0,5.1,0.4,4-4.2,4.2c0.1,2.2,0.1,4.4,0.2,6.7
			c0,2.8,0,3.5-1.6,3.6c-0.3,0-0.6,0.1-0.9,0.1h-1.2c0,2.1-0.1,4.1-0.1,6.1c0,4.7,0.3,4.1-4.1,4.2c0,0.9,0,1.9,0,2.8h86.4
			c0-0.1,0-0.2,0-0.3c0.2-1.6-0.2-2.7-2.2-2.5c-1.2,0.2-1.7-0.5-1.6-1.7c0.1-0.9-0.1-1.9,0-2.8c0.2-1.6-0.4-2.5-2.1-2.3
			c-1.5,0.2-2-0.6-1.9-2c0.1-1.1-0.5-1.7-1.5-1.5c-2.2,0.3-2.4-0.9-2.3-2.6c0.1-0.8,0-1.7,0-2.6c0-1-0.5-1.7-1.5-1.5
			c-1.9,0.2-2.7-0.5-2.5-2.4c0.1-1.1-0.8-1.2-1.6-1.1c-2.1,0.3-2.5-0.9-2.4-2.6c0.1-0.6-0.1-1.2,0-1.8c0.2-1.7-0.4-2.6-2.2-2.4
			c-1.1,0.2-1.7-0.4-1.5-1.5c0.2-2.6-1.9-1.8-3.2-2.1c-1.7-0.4,0.3-3.5-2.3-3.2c-0.1,0-0.2,0-0.3,0c-1.6,0.2-2.2-0.6-2-2.1
			c0.1-0.9-0.1-1.9,0.1-2.8c0.1-1.5-0.5-2.3-2.1-2.1c-1.4,0.2-2.1-0.4-2-1.9c0.1-1.2-0.7-1.4-1.7-1.4c-2.7,0-5.5,0-8.3,0
			c-0.9,0-1.7,0.2-1.7,1.1c0,2.1-1.3,2.2-2.9,2.1c-0.4,0-0.9-0.1-1.3-0.1h-1.3c-0.8,0-1.7,0-2.5,0
			C333.6,771.4,333.6,771.4,330,771.4z"/>
		<path class="st5" d="M196.1,721.3c0,0.3-0.1,0.6-0.1,0.9c-0.3,0.7-0.9,1.1-2.5,0.9c-1-0.2-1.4,0.6-1.3,1.4c0.2,1.7-0.7,2-2.2,1.9
			c-2-0.1-3.9-0.1-5.8-0.1v0.1l0,0c0.1,0.6,0.1,1.1,0.2,1.7c0,0.1,0,0.2,0,0.3c0,0.2-0.1,0.4-0.1,0.6c-0.3,0.7-0.9,1.1-2.5,0.9
			c-1.1-0.2-1.3,0.6-1.2,1.5c0.2,1.7-0.6,2.1-2.1,2c-0.9-0.1-1.9,0-2.8,0c-1.6-0.1-3.2-0.2-2.9,2.3c0.1,1.1-0.8,1.2-1.6,1.1
			c-1.5-0.1-2.6,0.1-2.3,2c0.2,1.1-0.5,1.5-1.5,1.4c-0.3,0-0.5,0-0.8,0c-2.8-0.2-0.9,2.5-2.1,3.3c-1.1,0.7-3.5-1-3.4,1.8
			c0.1,1.7-0.8,1.8-2.1,1.8s-2.6,0.1-3.9,0s-2.1,0.3-1.9,1.7c0.2,1.6-0.7,1.9-2,1.8c-1.1-0.1-2.1,0.1-1.9,1.6s-0.5,2-2,1.9
			c-0.7-0.1-1.9-0.3-1.9,0.8c0.1,2.2-0.8,2.9-2.9,2.6c-0.9-0.1-1.2,0.6-1.1,1.3c0.2,1.5-0.4,2.3-2.1,2.1c-1.4-0.2-2.1,0.3-2,1.9
			c0.2,1.2-0.5,1.7-1.7,1.6c-0.1,0-0.2,0-0.3,0c-3-0.6-1.1,2.9-2.7,3.3c-1.4,0.4-3.6-0.6-3.2,2.3c0.1,0.8-0.3,1.4-1.2,1.3
			c-0.5-0.1-0.9-0.1-1.4-0.1c-0.2,0.1-0.4,0.1-0.6,0.2c-0.1,0.1-0.2,0.1-0.2,0.2c-0.7,0.6-0.6,1.9-0.6,3.1l0,0c0,1.1,0,2.3,0.1,3.5
			h4.3c3.6,0,3.6,0,3.4,3.6c4.2-0.1,8.4,0.1,12.5-0.2c2.6-0.2,3.9,0.5,3.5,3.3l33.5,0.1h0.5c0.5,0.1,1-0.2,1.3-0.6
			c-0.4-1.3-0.2-2.2,0.6-2.5c0.2-0.1,0.4-0.1,0.5-0.2c0.4-0.1,0.7-0.1,1.1,0c0.4,0.1,0.8,0.1,1.2,0.1c1.2,0.1,2.4,0,3.6,0h0.8l0,0
			l0.2,0.1l0.1-0.1c-0.5-3.6-0.5-3.7,3.1-3.6c2.8,0.1,5.6-0.6,8.4,0.5l0,0c0.6,0,1.2,0,1.9,0c0.6,0,1.2-0.1,1.9-0.1
			c1.3-0.2,2.8,0.8,3.9-0.7c-2,0-3.9-0.1-5.9-0.1c-1,0-1.7-0.3-1.7-1.4c0-1.1,0.6-1.5,1.6-1.5l6.1,0.2l0,0h0.1h0.1h0.1l0.1-0.2
			c-0.4-3.7,0.3-4.3,3.7-2.9l0,0l0.5-0.6c-1.1-3-0.7-3.5,2.3-3.5c1.7,0,3.5-0.3,5.1,0.5l0,0c0.8,0,1.7,0.1,2.5,0
			c0.3,0,0.6-0.1,0.8-0.1c1.4-0.2,3,0.8,4.3-0.7c-2,0-3.9-0.1-5.9-0.1c-1,0-1.6-0.3-1.7-1.4c-0.1-1.1,0.6-1.5,1.6-1.5l6.1,0.2h0.1
			h0.1l0.1-0.2c-0.4-3.7,0.3-4.3,3.7-2.9l0,0l0.5-0.6c-0.7-1-0.9-2.3-0.2-3c1-1,2.4-0.7,3.7,0l0,0c0.9-0.4,2.1,0.3,2.9-0.1
			c0.4-0.2,0.6-0.4,0.8-0.8c-0.3,0-0.5,0.1-0.8,0.1c-0.1,0-0.2,0-0.3,0c-1.1-0.2-2.8,0.7-2.7-1.5s1.8-1.1,2.9-1.3
			c0.4,0,0.7,0.1,1,0.2l0,0c0.1,0,0.2,0,0.2-0.1c0.1-0.1,0.1-0.2,0.1-0.2c-0.1-1.1-0.2-2.2-0.2-3.3c0-3.7,0.1-3.7,3.8-3.2l0,0
			c0.6-0.1,1.3-0.1,2,0c0.3,0,0.5,0,0.7-0.1c0.4-0.1,0.8-0.4,1-0.7c-0.8,0-1.5-0.1-2.3-0.1c-1.1,0.1-1.4-0.6-1.4-1.6
			s0.5-1.4,1.4-1.3c0.8,0.1,1.7,0.1,2.5,0.2l0,0h0.1h0.1h0.1l0.1-0.2c-0.1-1.1-0.2-2.2-0.2-3.3c0-3.8,0-3.8,3.8-3.7
			c0-2.8,0-5.7,0-8.5c0-0.7-0.2-1.9,0.9-1.8c3.5,0.4,2.8-2,2.8-4c0-1.4,0-2.9,0-4.4c0-5.2,0-5.2-5.3-5.3c-0.3,0-0.5,0-0.8,0
			c-1.1,0.1-1.9-0.5-1.7-1.7c0.2-1.5-0.6-1.9-2-1.9c-9.1,0.1-18.2,0.1-27.4,0c-1.3,0-2,0.4-1.9,1.8c0.2,1.5-0.8,1.9-2.1,1.8
			c-2.5-0.1-5,0.1-7.5,0c-1.3-0.1-2.4,0.1-2.3,1.9c0.1,1.2-0.6,1.4-1.7,1.4c-2.2,0-4.5,0-6.7,0c-1.9,0-2.7,0-3.1,0.6
			c-0.1,0.2-0.2,0.3-0.2,0.5c-0.1,0.3-0.1,0.5-0.1,0.7c-0.1,0.4-0.1,1-0.1,1.6c0,0.1,0,0.2,0,0.4
			C196.1,720.5,196.1,720.9,196.1,721.3z"/>
		<path class="st5" d="M196,719.6L196,719.6c0.1-0.7,0.1-1.2,0.1-1.6C196.1,718.5,196,719,196,719.6z"/>
		<path class="st5" d="M196.2,717.3c0.1-0.2,0.1-0.4,0.2-0.5C196.4,717,196.3,717.1,196.2,717.3z"/>
		<path class="st5" d="M196.1,718c0-0.3,0.1-0.5,0.1-0.7C196.2,717.5,196.1,717.8,196.1,718z"/>
		<path class="st5" d="M242.3,757.9c0.4-0.2,0.6-0.4,0.8-0.8l0,0C243,757.5,242.7,757.7,242.3,757.9z"/>
		<path class="st5" d="M223.6,768.3L223.6,768.3c0.8,0,1.7,0.1,2.5,0C225.3,768.4,224.5,768.3,223.6,768.3z"/>
		<path class="st5" d="M215.8,771.9l0.5-0.6L215.8,771.9L215.8,771.9z"/>
		<path class="st5" d="M243.3,754.4L243.3,754.4c0.1,0,0.2,0,0.2-0.1C243.5,754.4,243.4,754.4,243.3,754.4z"/>
		<path class="st5" d="M239.4,758L239.4,758c0.9-0.4,2.1,0.3,2.9-0.1C241.5,758.2,240.3,757.6,239.4,758z"/>
		<path class="st5" d="M235.4,761.6l0.5-0.6L235.4,761.6L235.4,761.6z"/>
		<path class="st5" d="M192.3,781.7l0.1,0.1L192.3,781.7z"/>
		<path class="st5" d="M247.2,747.6L247.2,747.6c0.6-0.1,1.3-0.1,2,0C248.5,747.5,247.9,747.5,247.2,747.6z"/>
		<path class="st5" d="M249.1,747.6c0.3,0,0.5,0,0.7-0.1C249.6,747.6,249.4,747.6,249.1,747.6z"/>
		<path class="st2" d="M116.7,774.4c-2.1,0.3-3.6,0.4-3.4,3c0.1,0.8-1.1,0.7-1.7,0.6c-1.8-0.2-2.3,0.7-2.2,2.3
			c0.1,0.9-0.1,1.7,0,2.6c0.1,1.4-0.5,2.1-1.9,2c-1.2-0.1-2,0.3-1.9,1.7c0.1,1,0.1,2,1.5,1.8c1.1-0.1,2.6,0.5,2.5-1.5
			c-0.1-1.4,0.6-1.9,1.9-1.7c1.4,0.2,2.1-0.4,2-1.9c-0.1-0.3,0-0.9,0.2-1c2.2-0.6,4.3-1.2,4.4-4.1c0.3-0.1,0.7-0.1,1-0.1
			c0.8-0.1,1.5-0.1,2.3-0.1c0-2.3-0.1-3,0.6-3.3c0.2-0.1,0.4-0.1,0.6-0.1h0.4c0.4,0,0.9,0,1.6,0h0.7c0-1.2-0.1-2.5,0.6-3.1
			c0.1-0.1,0.2-0.1,0.2-0.2c0.2-0.1,0.4-0.2,0.6-0.2c0.5-0.1,0.9-0.1,1.4,0.1c0.9,0.2,1.3-0.5,1.2-1.3c-0.4-2.9,1.8-1.9,3.2-2.3
			c1.7-0.4-0.3-3.9,2.7-3.3c0.1,0,0.2,0,0.3,0c1.2,0.1,1.9-0.4,1.7-1.6c-0.2-1.5,0.6-2,2-1.9c1.6,0.2,2.2-0.5,2.1-2.1
			c-0.1-0.8,0.2-1.5,1.1-1.3c2.1,0.3,2.9-0.5,2.9-2.6c-0.1-1,1.2-0.8,1.9-0.8c1.4,0.1,2.1-0.4,2-1.9c-0.2-1.5,0.8-1.7,1.9-1.6
			c1.3,0.1,2.2-0.2,2-1.8c-0.2-1.4,0.6-1.8,1.9-1.7s2.6-0.1,3.9,0s2.2-0.1,2.1-1.8c-0.1-2.8,2.3-1.1,3.4-1.8
			c1.2-0.8-0.7-3.5,2.1-3.3c0.3,0,0.5,0,0.8,0c1,0.1,1.7-0.3,1.5-1.4c-0.3-1.9,0.8-2.2,2.3-2c0.8,0.1,1.7-0.1,1.6-1.1
			c-0.3-2.5,1.3-2.3,2.9-2.3c0.9,0.1,1.9-0.1,2.8,0c1.5,0.2,2.3-0.3,2.1-2c-0.1-0.9,0.2-1.7,1.2-1.5c1.6,0.2,2.3-0.2,2.5-0.9
			c0.1-0.2,0.1-0.4,0.1-0.6c0-0.1,0-0.2,0-0.3c0-0.6-0.1-1.1-0.2-1.7l-4-0.2l-3.7,0.3c-0.2,3.4-0.2,3.3-3.6,3.4c-1.4,0-2.9,0-4.3,0
			l0.1,0.1l-0.1-0.1c-0.1,3.9,0.4,3.3-3.9,3.4c-0.2,3.5-0.2,3.5-3.6,3.5h-4.3c0.7,3.6-1.7,3.6-4.1,3.7c0.2,1.5,0.4,2.6-1.9,2.8
			c-1.9,0.2-3.8,0.3-5.8,0.3c0,2,0.2,4-2.9,3.6c-0.9-0.2-1.1,0.7-1,1.4c0.2,1.7-0.7,2.1-2.2,2c-1.2-0.2-2,0.3-1.9,1.7
			c0.2,1.4-0.6,1.8-1.9,1.7c-1.5-0.2-2.3,0.4-2.1,2s-1,1.5-2.1,1.4c-1.3-0.1-2,0.3-1.8,1.7c0.2,1.4-0.5,1.9-1.8,1.8
			c-1.4-0.2-2.1,0.2-2.2,1.9c-0.2,2.7-2.5,0.9-3.8,1.5c0,0.9,0,1.8-0.1,2.6c0,0.5,0,0.9,0,1.4c0,0.5,0,0.9,0,1.3
			c0,1.1-0.4,1.6-1.5,1.5h-0.6h-0.6h-1.1l0,0C117.2,772.3,118.2,774.2,116.7,774.4z"/>
		<path class="st2" d="M190.1,726.5c1.4,0.1,2.3-0.2,2.2-1.9c-0.1-0.9,0.3-1.6,1.3-1.4c1.6,0.3,2.3-0.2,2.5-0.9
			c0.1-0.3,0.2-0.6,0.1-0.9c0-0.5-0.1-0.9-0.1-1.4c0-0.1,0-0.2,0-0.4l-3.9,0.2c0,3.4,0,3.4-3.8,3l0,0l-3.9,0.3l-0.2,3.3
			C186.2,726.5,188.1,726.4,190.1,726.5z"/>
		<path class="st2" d="M188.3,722.8l-3.9,0.3L188.3,722.8L188.3,722.8z"/>
		<path class="st2" d="M196.1,721.3c0,0.3-0.1,0.6-0.1,0.9C196,722,196.1,721.7,196.1,721.3z"/>
		<path class="st5" d="M173,730c3.4,0,3.4,0,3.6-3.4c-1.4-0.1-2.8-0.1-4.3-0.1h-1.4h-0.5h-0.4c-0.1,0-0.3,0.1-0.4,0.1
			c-0.2,0-0.3,0.1-0.4,0.1c-0.1,0.1-0.1,0.1-0.2,0.1l0,0c-0.1,0.1-0.1,0.1-0.1,0.1c-0.3,0.5-0.1,1.3-0.2,3
			C170.1,730,171.5,730,173,730z"/>
		<path class="st5" d="M169.1,726.7c0.1-0.1,0.3-0.1,0.4-0.1C169.3,726.6,169.2,726.6,169.1,726.7z"/>
		<path class="st5" d="M168.9,726.8c0.1-0.1,0.1-0.1,0.2-0.1C169,726.7,169,726.8,168.9,726.8z"/>
		<path class="st5" d="M168.8,726.9c0.1-0.1,0.1-0.1,0.1-0.1C168.9,726.9,168.9,726.9,168.8,726.9z"/>
		<path class="st5" d="M156.8,736.8L156.8,736.8l4.3,0.1c3.4,0,3.4,0,3.6-3.5h-0.1v-0.1h-4.3c-0.8-0.1-1.6,0-2.4,0.1
			c-0.2,0.1-0.4,0.1-0.5,0.2c-0.1,0.1-0.2,0.2-0.3,0.3c-0.1,0.1-0.2,0.2-0.2,0.3c-0.1,0.1-0.1,0.2-0.1,0.3
			C156.8,735.3,156.8,736.1,156.8,736.8L156.8,736.8L156.8,736.8z"/>
		<path class="st5" d="M156.9,734.5c0-0.1,0.1-0.2,0.1-0.3C157,734.3,156.9,734.4,156.9,734.5z"/>
		<path class="st5" d="M157,734.2c0.1-0.1,0.1-0.2,0.2-0.3C157.1,734,157,734.1,157,734.2z"/>
		<path class="st5" d="M157.5,733.6c0.2-0.1,0.3-0.2,0.5-0.2C157.8,733.4,157.6,733.5,157.5,733.6z"/>
		<path class="st5" d="M145.1,743.6L145.1,743.6L145.1,743.6c2-0.1,3.9-0.1,5.8-0.3c2.3-0.3,2.1-1.4,1.9-2.8h-0.1v-0.1
			c-1.5,0.1-3.1,0-4.6-0.1c-0.3-0.1-0.6-0.1-1-0.1c-0.3,0-0.5,0-0.8,0.1c-0.1,0-0.2,0.1-0.3,0.1c-0.3,0.1-0.5,0.3-0.7,0.5
			C144.9,741.5,144.9,742.4,145.1,743.6z"/>
		<path class="st5" d="M152.8,740.5L152.8,740.5c2.4,0.1,4.9,0,4.1-3.6l0,0v-0.1c-2.9,0.1-3.7-0.1-3.9,0.8c0,0.1-0.1,0.2-0.1,0.3
			s-0.1,0.2-0.1,0.4c0,0.2,0,0.3,0,0.4C152.9,739.2,152.8,739.7,152.8,740.5L152.8,740.5L152.8,740.5z"/>
		<path class="st5" d="M152.8,738.2c0-0.1,0-0.3,0.1-0.4C152.9,738,152.9,738.1,152.8,738.2z"/>
		<path class="st5" d="M152.9,737.9c0-0.1,0.1-0.2,0.1-0.3C152.9,737.7,152.9,737.8,152.9,737.9z"/>
		<path class="st5" d="M152.8,738.7c0,0.5-0.1,1-0.1,1.8l0,0C152.8,739.7,152.8,739.2,152.8,738.7z"/>
		<path class="st5" d="M184.2,726.5L184.2,726.5L184.2,726.5l0.2-3.3c-0.5-0.1-0.9-0.1-1.3-0.2c-0.4-0.1-0.7-0.1-1-0.1
			c-0.2,0-0.3,0-0.5,0c-0.2,0-0.3,0.1-0.4,0.1c-0.8,0.3-0.9,1.2-1,3.3l0,0L184.2,726.5z"/>
		<path class="st5" d="M181.2,723.1c-0.8,0.3-0.9,1.2-1,3.3l0,0C180.3,724.2,180.3,723.3,181.2,723.1z"/>
		<path class="st5" d="M164.7,733.3L164.7,733.3L164.7,733.3c4.3,0,3.9,0.6,3.9-3.3l-1.3,0.1l-0.6,0.1c-0.3,0-0.5,0.1-0.7,0.1h-0.1
			c-0.4,0.1-0.7,0.2-0.9,0.5C164.6,731.1,164.6,731.9,164.7,733.3z"/>
		<path class="st5" d="M165.8,730.2c-0.4,0.1-0.7,0.2-0.9,0.5C165.2,730.4,165.5,730.2,165.8,730.2z"/>
		<path class="st5" d="M166,730.1c0.3-0.1,0.5-0.1,0.7-0.1C166.4,730.1,166.2,730.1,166,730.1z"/>
		<path class="st5" d="M188.3,722.8c3.8,0.4,3.8,0.4,3.8-3l-0.7-0.1c-0.4-0.1-0.8-0.1-1.1-0.1c-0.3,0-0.5,0-0.8,0
			c-0.3,0-0.5,0.1-0.7,0.2C188.3,720.3,188.3,721.1,188.3,722.8z"/>
		<path class="st5" d="M188.9,720c0.2-0.1,0.5-0.2,0.7-0.2C189.3,719.7,189.1,719.9,188.9,720z"/>
		<path class="st5" d="M190.4,719.7c0.3,0,0.7,0.1,1.1,0.1C191,719.7,190.7,719.7,190.4,719.7z"/>
		<path class="st3" d="M183.1,784.9h-0.5l-33.5-0.1v0.1H149c-0.3,3.6-0.3,3.6,3.4,3.6h5.9c7.9,0,15.8,0,23.7,0
			c0.9,0,2.4,0.4,2.2-1.3c-0.2-2.1,1-2,2.5-2.2c1.8-0.2,3.7,0.9,5.2-0.7h-7.6C184.1,784.8,183.5,785,183.1,784.9z"/>
		<path class="st3" d="M184.4,784.3L184.4,784.3c-0.3,0.4-0.8,0.6-1.3,0.6C183.6,785,184.1,784.7,184.4,784.3z"/>
		<path class="st6" d="M302,809.1L302,809.1L302,809.1c-3.4,0.1-3.7,0.1-3.8,2.8h3.8C302,811,302,810,302,809.1z"/>
		<path class="st7" d="M149.1,784.8c0.4-2.7-0.9-3.4-3.5-3.3c-4.2,0.2-8.4,0.1-12.5,0.2v0.1l0,0c0.6,1.1-0.8,3.3,2,3.3
			C139.7,784.9,144.4,784.9,149.1,784.8L149.1,784.8L149.1,784.8L149.1,784.8z"/>
		<path class="st7" d="M302,809.1c4.4-0.1,4.1,0.6,4.1-4.2c0-2.1,0-4.1,0.1-6.1h-0.1v-0.1c-0.3,0.1-0.7,0.1-1,0
			c-2.6-0.5-3.2,0.8-3,3.2C302.2,804.3,302,806.6,302,809.1L302,809.1L302,809.1L302,809.1z"/>
		<path class="st7" d="M306.1,804.9c0-2.1,0-4.1,0.1-6.1l0,0C306.1,800.9,306.1,802.9,306.1,804.9z"/>
		<path class="st3" d="M204,778.6c-2.7-1.1-5.6-0.4-8.4-0.5c-3.6-0.1-3.6-0.1-3.1,3.6c2.8,0,5.6-0.3,8.4,0c0.6,0.1,1.3,0.1,1.9-0.1
			c0.3-0.1,0.5-0.2,0.7-0.4c0.3-0.3,0.4-0.6,0.5-0.9C204.1,779.7,204.1,779.2,204,778.6z"/>
		<path class="st3" d="M203.5,781.2c-0.2,0.2-0.5,0.3-0.7,0.4C203,781.5,203.3,781.3,203.5,781.2z"/>
		<path class="st3" d="M203.9,780.2c-0.1,0.4-0.3,0.7-0.5,0.9C203.7,780.9,203.9,780.6,203.9,780.2z"/>
		<path class="st3" d="M306.1,798.8L306.1,798.8L306.1,798.8l1.2,0.1c0.4,0,0.7,0,0.9-0.1c1.6-0.2,1.6-0.8,1.6-3.6
			c0-2.2-0.1-4.4-0.2-6.7h-0.1v-0.1c-3.9,0.2-3.6-0.8-3.7,3.7C306.1,794.3,306.1,796.6,306.1,798.8L306.1,798.8L306.1,798.8z"/>
		<path class="st3" d="M325.8,771.4L325.8,771.4c1.4,0.1,2.8-0.1,4.3-0.1c3.6,0,3.6,0,3.5-3.6h-0.1v-0.1c-1.4,0-2.9,0-4.3,0
			c-1.9,0.1-2.8-0.2-3.2,0.3c-0.1,0.1-0.1,0.1-0.1,0.2c-0.1,0.1-0.1,0.2-0.1,0.3c0,0.1-0.1,0.2-0.1,0.3c-0.1,0.3-0.1,0.6-0.1,0.9
			C325.7,770.2,325.7,770.7,325.8,771.4L325.8,771.4L325.8,771.4z"/>
		<path class="st3" d="M325.7,769.8c0-0.3,0-0.6,0.1-0.9C325.7,769.1,325.7,769.4,325.7,769.8z"/>
		<path class="st3" d="M325.8,768.5c0-0.1,0.1-0.2,0.1-0.3C325.9,768.4,325.8,768.4,325.8,768.5z"/>
		<path class="st3" d="M325.9,768.3c0.1-0.1,0.1-0.2,0.1-0.2C326,768.2,325.9,768.2,325.9,768.3z"/>
		<path class="st3" d="M218.6,767.8c-3,0-3.4,0.5-2.3,3.5c1.4,0,2.9-0.2,4.3,0c0.4,0.1,0.8,0.1,1.2,0.1c0.2,0,0.4-0.1,0.6-0.1
			c0.3-0.1,0.5-0.2,0.7-0.4c0.4-0.5,0.6-1.1,0.6-1.7c0-0.3,0-0.6-0.1-0.8C222,767.5,220.3,767.8,218.6,767.8z"/>
		<path class="st3" d="M222.4,771.3c-0.2,0.1-0.4,0.1-0.6,0.1C222,771.4,222.2,771.4,222.4,771.3z"/>
		<path class="st3" d="M223.7,769.1c0.1,0.6-0.2,1.2-0.6,1.7C223.5,770.4,223.7,769.8,223.7,769.1z"/>
		<path class="st3" d="M223.1,770.8c-0.2,0.2-0.5,0.4-0.7,0.4C222.7,771.2,222.9,771,223.1,770.8z"/>
		<path class="st6" d="M310.2,782l-0.5,6.4h0.1v0.1c4.5-0.2,4.1,0.9,4.2-4.2c0-0.8,0-1.7-0.1-2.5C312.6,782,311.4,782.6,310.2,782z"
			/>
		<path class="st6" d="M310.2,782L310.2,782l-0.5,6.4l0,0L310.2,782z"/>
		<path class="st6" d="M313.9,784.3c0-0.8,0-1.7-0.1-2.5l0,0C313.9,782.6,313.9,783.4,313.9,784.3z"/>
		<path class="st3" d="M251.2,740.6c0,1.1,0.1,2.2,0.2,3.3c3.6-0.3,3.6-0.3,3.6-4c0-1,0-2,0-3l0,0v-0.1
			C251.2,736.8,251.2,736.8,251.2,740.6z"/>
		<path class="st7" d="M243.4,750.8c0,1.1,0.2,2.2,0.2,3.3c3.5-0.2,3.5-0.2,3.5-3.9c0-0.4,0-0.8,0-1.3c0-0.5,0-0.8,0.1-1.3
			C243.5,747.1,243.4,747.1,243.4,750.8z"/>
		<path class="st7" d="M247.2,748.9c0-0.4,0-0.8,0.1-1.3l0,0C247.2,748.1,247.2,748.5,247.2,748.9z"/>
		<path class="st6" d="M187.8,781.7c-0.4,0-0.8-0.1-1.2-0.1c-0.4-0.1-0.7-0.1-1.1,0c-0.2,0-0.4,0.1-0.5,0.2c-0.8,0.4-1,1.2-0.6,2.5
			l0,0h7.6v-2.1l-0.6-0.5C190.3,781.7,189,781.7,187.8,781.7z"/>
		<path class="st6" d="M185,781.8c0.2-0.1,0.4-0.1,0.5-0.2C185.4,781.7,185.2,781.7,185,781.8z"/>
		<path class="st6" d="M184.4,784.3c-0.4-1.3-0.2-2.2,0.6-2.5C184.2,782.2,184.1,783,184.4,784.3L184.4,784.3z"/>
		<path class="st6" d="M211.9,775L211.9,775l-6.1-0.2c-1-0.1-1.6,0.4-1.6,1.5c0,1.1,0.6,1.4,1.7,1.4c2,0,3.9,0,5.9,0.1L211.9,775
			L211.9,775L211.9,775z"/>
		<path class="st6" d="M211.9,775l-6.1-0.2L211.9,775L211.9,775z"/>
		<path class="st6" d="M225.4,764.5c-1-0.1-1.6,0.4-1.6,1.5s0.6,1.4,1.7,1.4c2,0,3.9,0.1,5.9,0.1l0.2-2.8L225.4,764.5z"/>
		<path class="st8" d="M318,777.7L318,777.7L318,777.7c-0.6,0.2-1.2,0.4-1.8,0.4h-0.1c-0.4,0.1-0.7,0.1-1.1,0.3
			c-0.9,0.3-1.5,1-1.1,2.9l0.1,0.5C317.9,781.6,317.9,781.6,318,777.7z"/>
		<path class="st8" d="M314.9,778.3c0.4-0.1,0.7-0.2,1.1-0.3C315.6,778.1,315.3,778.2,314.9,778.3z"/>
		<path class="st8" d="M318,777.6c-0.6,0.3-1.2,0.4-1.8,0.5C316.8,778,317.4,777.8,318,777.6L318,777.6z"/>
		<path class="st3" d="M235.7,758c-0.8,0.7-0.5,2,0.2,3c0.5,0.1,1,0.1,1.5,0c0.2,0,0.5-0.1,0.7-0.1c0.8-0.2,1.4-0.8,1.4-2
			c0-0.3-0.1-0.7-0.1-1C238.1,757.3,236.7,757,235.7,758z"/>
		<path class="st3" d="M238,760.9c0.8-0.2,1.4-0.8,1.4-2C239.4,760.1,238.9,760.7,238,760.9z"/>
		<path class="st3" d="M238,760.9c-0.2,0.1-0.5,0.1-0.7,0.1C237.6,761,237.8,761,238,760.9z"/>
		<path class="st7" d="M318,777.6L318,777.6c1.7,0.7,2.7,0.9,3.2,0.4c0.2-0.2,0.3-0.4,0.4-0.6c0.2-1,0.3-2,0.1-2.9h-0.1v-0.1
			c-0.7,0.1-1.4,0.2-2.2,0.2c-0.2,0-0.5,0.1-0.7,0.1s-0.4,0.2-0.6,0.3c-0.1,0.1-0.2,0.2-0.3,0.4C317.7,775.8,317.7,776.5,318,777.6z
			"/>
		<path class="st7" d="M318,775.4c0.1-0.2,0.2-0.3,0.3-0.4C318.1,775.2,318,775.3,318,775.4z"/>
		<path class="st7" d="M321.5,777.5c-0.1,0.2-0.2,0.4-0.4,0.6C321.3,777.9,321.5,777.7,321.5,777.5z"/>
		<path class="st3" d="M321.6,774.5L321.6,774.5L321.6,774.5c4,0.3,4.1,0.3,4.1-3h-0.1v-0.1c-0.9-0.2-1.9-0.2-2.8-0.1
			C321.9,771.6,321.8,772.4,321.6,774.5z"/>
		<path class="st3" d="M231.7,764.5c0.2-0.1,0.5-0.1,0.7-0.1h0.7c0.3,0,0.5,0,0.7-0.1c0.9-0.1,1.6-0.5,1.7-1.7
			c0-0.4-0.1-0.7-0.1-1.1C232,760.2,231.3,760.8,231.7,764.5z"/>
		<path class="st3" d="M233.9,764.4c0.9-0.1,1.6-0.5,1.7-1.7C235.5,763.9,234.8,764.3,233.9,764.4z"/>
		<path class="st3" d="M233.9,764.4c-0.2,0.1-0.5,0.1-0.7,0.1C233.4,764.4,233.7,764.4,233.9,764.4z"/>
		<path class="st3" d="M212.1,774.8c0.4-0.1,0.7-0.1,1.1-0.1s0.7,0,1.1-0.1c0.9-0.1,1.6-0.5,1.7-1.7c0-0.4-0.1-0.7-0.1-1.1
			C212.4,770.5,211.7,771.1,212.1,774.8z"/>
		<path class="st3" d="M214.2,774.7c-0.4,0.1-0.7,0.1-1.1,0.1C213.6,774.8,213.9,774.8,214.2,774.7z"/>
		<path class="st3" d="M214.2,774.7c0.9-0.1,1.6-0.5,1.7-1.7C215.8,774.2,215.2,774.6,214.2,774.7z"/>
		<path class="st6" d="M248.6,743.9c-0.9-0.1-1.4,0.4-1.4,1.3c-0.1,1,0.3,1.6,1.4,1.6c0.8,0,1.5,0.1,2.3,0.1l0.2-2.8
			C250.3,744,249.5,743.9,248.6,743.9z"/>
		<path class="st6" d="M242.3,754.3c-1.1,0.2-2.8-0.8-2.9,1.3c-0.1,2.2,1.7,1.3,2.7,1.5c0.1,0,0.2,0,0.3,0c0.3,0,0.5-0.1,0.8-0.1
			l0.2-2.7C242.9,754.3,242.6,754.2,242.3,754.3z"/>
		<path class="st6" d="M243.2,757.1l0.2-2.7l0,0L243.2,757.1z"/>
		<path class="st5" d="M313.9,781.8L313.9,781.8L313.9,781.8l-0.1-0.6c-0.3,0.1-0.6,0.1-0.9,0.1c-1-0.1-2-0.5-2.7,0.8l0,0
			C311.4,782.6,312.6,782,313.9,781.8z"/>
		<path class="st3" d="M191.4,781.7l0.6,0.5l0.3-0.5H191.4z"/>
	</g>
	<rect x="94.2" y="-19.1" class="st9" width="388.9" height="331.2"/>
	<text transform="matrix(1 0 0 1 127.3096 289.4854)" class="st10 st11">反</text>
	<text transform="matrix(1 0 0 1 127.3096 638.6914)" class="st10 st11">化</text>
	<text transform="matrix(1 0 0 1 131.4419 1004.4297)" class="st10 st11">勾</text>
	<text transform="matrix(1 0 0 1 131.4419 1349.5059)" class="st10 st11">冈</text>
	<text transform="matrix(1 0 0 1 127.3091 1698.7129)" class="st10 st11">月</text>
	<text transform="matrix(1 0 0 1 127.3091 2056.1855)" class="st10 st11">乌</text>
	<text transform="matrix(1 0 0 1 131.4424 2421.9219)" class="st10 st11">内</text>
	<rect x="132.5" y="3938.1" class="st9" width="338.1" height="339.1"/>
	<rect x="138.6" y="4294.9" class="st9" width="338.1" height="339.1"/>
	<rect x="127.3" y="4651.8" class="st9" width="338.1" height="339.1"/>
	<rect x="127.3" y="5008.6" class="st9" width="338.1" height="339.1"/>
	<rect x="127.3" y="5365.9" class="st9" width="338.1" height="339.1"/>
	<rect x="127.3" y="5723.5" class="st9" width="338.1" height="339.1"/>
	<rect x="127.3" y="6081.1" class="st9" width="338.1" height="339.1"/>
	<rect x="127.3" y="6435.2" class="st9" width="338.1" height="339.1"/>
	<rect x="138.6" y="6792.4" class="st9" width="338.1" height="339.1"/>
	<rect x="131.4" y="7146.8" class="st9" width="338.1" height="339.1"/>
	<rect x="138.6" y="7501.1" class="st9" width="338.1" height="339.1"/>
	<rect x="131.4" y="7851.5" class="st9" width="338.1" height="339.1"/>
	<g>
		<g>
			<g>
				<g>
					<defs>
						<rect id="SVGID_1_" x="170.4" y="813.1" width="223.2" height="8.3"/>
					</defs>
					<clipPath id="SVGID_2_">
						<use xlink:href="#SVGID_1_"  style="overflow:visible;"/>
					</clipPath>
					<path class="st12" d="M172.3,816.9c-0.4-0.4-0.7-0.7-1.2-0.9l0.4-0.4c0.4,0.3,0.8,0.6,1.2,0.9L172.3,816.9L172.3,816.9z
						 M172.5,816.8c0.1,0.4,0.3,0.6,0.4,0.7c-0.4,0.7-0.8,1.4-1.1,2.2l-0.6-0.4C171.7,818.7,172.1,817.9,172.5,816.8L172.5,816.8z
						 M172.7,815.5c-0.4-0.4-0.7-0.7-1.1-0.9l0.4-0.4c0.4,0.3,0.8,0.6,1.1,0.9L172.7,815.5L172.7,815.5z"/>
				</g>
			</g>
		</g>
	</g>
</g>
<g id="图层_3" class="st0">
	<rect x="261.3" y="6915.2" class="st13" width="152.9" height="198.4"/>
	<rect x="281" y="7289.5" class="st13" width="152.9" height="176.3"/>
	
		<rect x="210.1" y="7333" transform="matrix(0.4421 -0.897 0.897 0.4421 -6443.7197 4347.2837)" class="st13" width="125.4" height="41.1"/>
	
		<rect x="223.5" y="7380.1" transform="matrix(0.4421 -0.897 0.897 0.4421 -6478.4902 4385.603)" class="st13" width="125.4" height="41.1"/>
</g>
<g id="图层_2_1_" class="st0">
	<rect x="-169.1" y="7841" class="st6" width="317.9" height="357.3"/>
	<rect x="-511.7" y="8021.1" class="st6" width="317.9" height="357.3"/>
</g>
</svg>
