<?xml version="1.0" encoding="utf-8"?>
<!-- Generator: Adobe Illustrator 22.0.1, SVG Export Plug-In . SVG Version: 6.00 Build 0)  -->
<svg version="1.1" xmlns="http://www.w3.org/2000/svg" xmlns:xlink="http://www.w3.org/1999/xlink" x="0px" y="0px"
	 viewBox="0 0 615.3 4179.5" style="enable-background:new 0 0 615.3 4179.5;" xml:space="preserve">
<style type="text/css">
	.st0{display:none;}
	.st1{display:inline;fill:none;}
	.st2{display:inline;fill:#FDCBC4;}
	.st3{display:inline;fill:#090705;}
	.st4{display:inline;fill:#E89D22;}
	.st5{display:inline;fill:#984E00;}
	.st6{display:inline;}
	.st7{display:inline;fill:#040304;}
	.st8{display:inline;fill:#0E1010;}
	.st9{fill:none;}
	.st10{font-family:'STKaiti';}
	.st11{font-size:650px;}
	.st12{clip-path:url(#SVGID_2_);}
</style>
<g id="图层_1">
	<g id="Layer_1" class="st0">
		<path class="st1" d="M-1233.3,1233.7v338h102c0-9.3,0-18.7-0.1-28.1c0-3.1,0.9-4.4,3.9-3.9c3.3,0.5,4-1.3,3.8-4.1
			c-0.2-1.6,0.1-3.3-0.1-5c-0.3-3,0.5-4.9,4-4.3c2.9,0.5,3.8-0.9,3.6-3.7c-0.2-3.1,0.1-6.3-0.1-9.5c-0.2-4-0.6-7.9,5.5-6.9
			c1.8,0.3,2.1-1.1,2.1-2.6c0-1.8,0.1-3.7,0-5.5c-0.3-3.4,0.1-6,4.6-5.2c2.5,0.4,3.2-1,3-3.2c-0.1-1.7,0.1-3.4-0.1-5
			c-0.4-3.7,0.5-5.8,4.8-5.1c2.1,0.4,3.2-0.7,2.9-2.8c-0.5-3.2,1-4.1,4-3.9c1.6,0.1,3.8,0.5,3.6-2.1c-0.4-3.9,1.3-5.1,4.9-4.5
			c2.2,0.3,3.1-0.8,2.8-2.9c-0.5-3.3,1.1-4.1,4-3.8c1.3,0.1,3.6,0.6,3.4-1.6c-0.3-4.3,1.4-5.6,5.4-5c1.7,0.3,2.5-0.8,2.3-2.4
			c-0.5-3.8,1.4-4.6,4.6-4.2c2,0.2,3.3-0.5,3-2.8c-0.4-3.1,0.9-4.3,3.9-3.9c2.8,0.4,4.1-0.6,3.7-3.6s1.3-3.4,3.6-3.1
			c2.9,0.4,4.5-0.4,4-3.7c-0.4-2.6,1.2-3.1,3.4-3c2.5,0.1,5-0.1,7.5,0.1c3,0.2,4.9-0.5,4.4-4c-0.3-2.3,1.1-2.7,3.1-2.7
			c4.1,0,8.3-0.2,12.4-0.3l0,0l0,0c-0.8-3.7-1.4-7.2,4.4-6.4c2.2,0.3,3.1-0.8,2.8-2.9c-0.4-3.2,1.2-4,4.1-3.8
			c2.1,0.2,4.3-0.1,6.5,0.1c3.2,0.3,5.2-0.4,4.7-4.2c-0.3-2,0.9-2.6,2.7-2.5c2.5,0.1,5-0.1,7.5,0.1c3.3,0.2,5.6-0.1,5-4.4
			c-0.4-2.6,1.6-2.4,3.3-2.3c5.1,0,10.3-0.1,15.5,0c2.5,0.1,4.4-0.1,4-3.4s1.5-3.4,4-3.4c5,0.1,10-0.1,15,0.1
			c2.5,0.1,4.3-0.3,3.9-3.4c-0.4-3.1,1.6-3.3,4-3.3c9.8,0.1,19.6,0.1,29.4,0c1.7,0,3.8,0.9,4.9-1.3c-0.4-1.3-0.4-2.7,0.1-3.9
			c0.7-2.4,2.8-1.3,4.2-1.3c11.1-0.1,22.2-0.1,33.3-0.1c-0.6-5.4,1.5-6.7,7-6.7c51.3,0.3,102.5,0.3,153.8,0c5.4,0,7.6,1.3,7,6.7
			c11.1,0,22.2,0,33.2,0.1c1.4,0,3.4-1.1,4.2,1.2c-0.4,4.9,2.1,5.7,6.5,5.5c9.1-0.4,18.2-0.1,27.3-0.1c2.8,0,5.1,0,4.5,3.8
			c-0.4,2.6,1.2,2.9,3.3,2.9c4-0.1,8,0.4,11.9-0.1c5.5-0.7,8.5,0.8,8,6.8c6.3,0,12.7-0.1,19,0c1.1,0,2.8-0.9,3.1,1.4
			c-0.6,4.8,2.1,5.8,6.2,5.3c1.6-0.2,3.3,0.1,5-0.1c2.9-0.2,4.9,0.3,4.4,3.9c-0.3,2.2,0.9,2.9,3,2.8c1.8-0.1,3.6,0,5.5,0
			c6.6,0,6.6,0,6.9,6.5c2.3,1.1,5.4-1.6,7.2,1.6c-0.5,4.8,2,5.9,6.2,5.3c1.6-0.2,3.3,0.1,5,0c2.9-0.2,4.9,0.2,4.4,3.9
			c-0.3,2.2,0.9,2.9,2.9,2.8c1.8-0.1,3.6,0,5.5,0c6.6,0,6.6,0,6.9,6.5c2.3,1.1,5.4-1.6,7.2,1.6c0,3.4,0.6,6.1,5.2,5.3
			c2.7-0.5,2.8,1.4,2.8,3.4c-0.1,1.5-0.2,3.5,2,3.1c6-1.1,5.8,2.8,5.9,6.7c2.3,0.8,5.2-1.6,7,1.4c0,3.5,0.7,6.2,5.2,5.3
			c1.8-0.3,2.9,0.6,2.6,2.6c-0.5,3.4,1,4.5,4.2,4.1c2.6-0.4,3.7,0.7,3.5,3.4c0,1.1,0.2,2.3,0.5,3.4c2.2,0.5,5-1.7,6.8,1.3
			c0,3.3,0.5,6.2,5.1,5.3c2.1-0.4,2.9,0.8,2.8,2.9c0,3.4,0.2,6.9,0.2,10.3c2.3,0.9,5.3-1.7,7.1,1.5c0.1,1.8,0.3,3.6,0.2,5.5
			c-0.2,3.9-0.5,7.5,5.4,6.6c2.1-0.4,2.3,1.3,2.3,3c0,4.5,0.1,9,0,13.5c-0.1,2.5,0.6,3.9,3.3,3.5c3.6-0.6,4.8,1.1,4.4,4.5
			c-0.2,1.3,0.1,2.7,0,4c-0.4,3.4,0.3,5.6,4.5,4.9c2.8-0.5,3.2,1.2,3.2,3.6c0,9.5,0,18.9,0,28.4h257c0.1-0.4,0.1-0.9,0.1-1.3
			c0-1.8,0.1-3.7,0-5.5c-0.3-3.4,0.1-6,4.6-5.2c2.5,0.4,3.2-1,3.1-3.2c-0.1-1.7,0.1-3.4-0.1-5c-0.4-3.6,0.5-5.8,4.8-5.1
			c2.2,0.4,3.1-0.8,2.8-2.9c-0.4-3.3,1.2-4.1,4.1-3.8c2.9,0.3,3.8-1,3.6-3.7c-0.2-2,0.1-4-0.1-6c-0.3-2.9,0.9-4,3.7-3.6
			c2.5,0.3,4.4-0.2,3.9-3.4c-0.4-2.7,1-3.7,3.5-3.2c3.9,0.7,4.5-1.4,4.2-4.6c-0.2-1.5,0.1-3-0.1-4.5c-0.3-3.1,0.6-4.8,4.1-4.3
			c2.4,0.4,3.9-0.5,3.5-3.2c-0.5-3.2,1.4-3.7,3.9-3.4c2.7,0.4,4.1-0.6,3.7-3.5s1.3-3.5,3.6-3.1c3.5,0.5,4.3-1.2,4-4.3
			c-0.2-1.6,0.1-3.3-0.1-5c-0.3-2.9,0.5-4.5,3.8-4.1c2.6,0.4,4.3-0.3,3.9-3.4c-0.4-2.7,1-3.4,3.5-3.3c1.5,0,4.3,1.1,4-2
			c-0.3-3.9,1.2-5.1,4.8-4.6c2.2,0.3,3.2-0.8,2.8-2.9c-0.5-3.3,1.2-4.1,4.1-3.7c2.4,0.3,3.9-0.4,3.5-3.2c-0.4-3,1.2-3.8,3.8-3.5
			s4.3-0.3,3.8-3.4c-0.4-2.8,1.2-3.5,3.6-3.2c2.9,0.4,4.5-0.6,4-3.8c-0.4-2.6,1.2-3,3.4-2.9s4.3-0.1,6.5,0c3.2,0.2,6.1,0.3,5.4-4.5
			c-0.4-2.6,1.9-2.3,3.4-2.2c2.8,0.2,4.5-0.5,4.1-3.8c-0.3-2.6,1.2-3,3.4-3c2.8,0.1,5.7-0.1,8.5,0.1c2.2,0.1,3.7-0.5,3.3-3
			c-0.5-3.4,1.3-4,4.1-3.7c2.4,0.3,4-0.3,3.5-3.1c-0.5-2.8,1.1-3.8,3.8-3.6c2,0.2,4,0,6,0c3.2,0.2,6.1,0.4,5.5-4.4
			c-0.3-2.9,2.3-2.3,3.9-2.2c2.4,0.1,4-0.4,3.6-3.2c-0.5-3.1,1.2-3.6,3.8-3.5c5,0.1,10-0.1,15,0.1c2.9,0.1,4.5-0.6,4-3.8
			c-0.4-2.6,1.2-3,3.3-2.9s4.3-0.1,6.5,0c3.2,0.1,6.2,0.4,5.4-4.4c-0.3-1.7,0.9-2.3,2.5-2.3c2.3,0,4.7-0.1,7,0
			c3.4,0.2,6.4,0.3,5.7-4.7c-0.3-2.2,1.7-2,3.2-2c5.2,0,10.3-0.1,15.5,0c2.8,0.1,4.6-0.3,4.1-3.7c-0.4-2.5,1-3.1,3.2-3.1
			c5.2,0.1,10.3-0.1,15.5,0.1c2.8,0.1,4.6-0.4,4.1-3.8c-0.4-2.6,1.2-3,3.4-2.9c23.2,0,46.3,0,69.5,0c2.3,0,3.5,0.7,3.2,3.1
			c-0.4,3,1.1,3.7,3.8,3.6c5.2-0.1,10.3,0,15.5-0.1c2.4-0.1,4,0.4,3.6,3.2c-0.5,3,1.1,3.6,3.7,3.5c5.2-0.2,10.3,0,15.5-0.1
			c2.4,0,4,0.4,3.6,3.2c-0.4,3,1.1,3.7,3.8,3.5c2-0.2,4,0,6,0c3.2-0.1,6.2-0.3,5.5,4.4c-0.4,2.6,1.9,2.2,3.4,2.2
			c5.2,0,10.3,0.1,15.5,0c2.6-0.1,4.2,0.5,3.8,3.5c-0.4,2.8,1.1,3.4,3.5,3.2c2-0.1,4,0.1,6,0c3.4-0.2,6.5-0.4,5.7,4.7
			c-0.3,2.2,1.7,2.1,3.1,2c3-0.3,4.9,0.4,4.4,4c-0.3,2.2,1,2.8,3.1,2.7c2.2-0.1,4.3,0.1,6.5,0c3.5-0.2,6.4-0.2,5.7,4.7
			c-0.3,2.3,1.7,2.1,3.1,2c2.8-0.2,5,0.1,4.4,3.8c-0.3,2.2,0.8,3,2.9,2.9s4.3,0.1,6.5,0c3.3-0.2,6.5-0.4,5.8,4.6
			c-0.3,2.2,1.6,2.1,3.1,2c2.9-0.2,5,0.2,4.4,3.9c-0.4,2.2,0.9,2.9,3,2.8s4.3,0,6.5,0c3.2-0.1,6.6-0.6,5.8,4.5
			c-0.3,2.1,1.5,2.3,3.1,2.1c2.9-0.2,5,0.2,4.5,3.9c-0.5,3.3,2,2.8,3.9,2.7c2.3-0.1,4.1,0.2,3.7,3.1s0.9,3.9,3.7,3.6
			c2.5-0.3,4.4,0.1,3.9,3.4c-0.4,2.7,1,3.4,3.5,3.4c1.5,0,4.1-0.8,3.9,1.7c-0.3,4.4,1.5,5.6,5.5,5c2.2-0.3,2.5,1.3,2.3,2.9
			c-0.4,3.2,1.1,4.2,4,3.8c2.9-0.4,3.9,0.9,3.6,3.7c-0.2,1.6,0.1,3.3-0.1,5c-0.3,3.2,0.3,5.2,4.2,4.6c2.5-0.4,3.9,0.6,3.5,3.3
			c-0.4,3.1,1.3,3.7,3.9,3.4c2.7-0.4,4.2,0.6,3.7,3.5c-0.3,2.4,0.9,3.5,3.2,3.1c4.1-0.7,4.9,1.5,4.4,4.9c-0.1,1,0.1,2,0,3
			c-0.4,3.6,0.1,6.3,4.8,5.5c2.2-0.4,3.1,0.8,2.8,2.9c-0.3,2.7,0.6,4.2,3.6,3.8c3.5-0.5,4.4,1.2,4.1,4.3c-0.2,1.3,0.1,2.7-0.1,4
			c-0.5,3.6,0.5,5.8,4.7,5.1c2.1-0.4,3.2,0.7,2.9,2.9c-0.4,3.2,1.1,4.2,4,3.8s3.8,1,3.6,3.7c-0.2,2,0.1,4-0.1,6
			c-0.3,2.9,0.9,4,3.7,3.6c3.6-0.5,4.3,1.4,3.9,4.4c-0.1,1.1,0.1,2.3,0,3.5c-0.3,1.4-0.2,2.9,0.3,4.2h257.1c0-3.9,0-7.8-0.1-11.6
			c-0.1-2.7,0.7-4.2,3.6-3.8s4.4-0.6,4-3.8s1.9-2.9,3.9-2.9c13.5,0,27,0,40.5,0c51.8,0,103.7,0,155.5,0c3.1,0,6.2,0.4,5.5-4.4
			c-0.4-2.6,1.8-2.4,3.4-2.2c3.4,0.4,4.5-1,4.1-4.2c-0.2-1.5,0.1-3-0.1-4.5c-0.3-3.2,0.4-5.3,4.2-4.6c3.1,0.5,3.7-1.2,3.5-3.8
			c-0.1-1.3,0.1-2.7,0-4c-0.4-3.6,0.1-6.4,4.8-5.6c2.2,0.4,2.9-1,2.8-3c-0.1-1.7,0.2-3.4,0-5c-0.5-3.9,0.4-6.1,4.9-5.3
			c1.8,0.3,2.9-0.5,2.7-2.5c-0.4-3.3,1-4.6,4.2-4.1c2.6,0.4,3.7-0.8,3.4-3.4c-0.2-1.8,0.1-3.7-0.1-5.5c-0.4-3.4,0.8-5,4.4-4.5
			c2.8,0.4,3.5-1.1,3.3-3.5c-0.1-1.8,0.1-3.7-0.1-5.5c-0.3-3.1,0.6-4.9,4.1-4.3c2.9,0.5,3.9-0.9,3.6-3.6c-0.2-2,0.1-4-0.1-6
			c-0.2-2.8,0.8-4,3.7-3.7c2.5,0.3,4.4-0.2,3.9-3.4c-0.4-2.7,0.9-3.7,3.4-3.3c3.9,0.7,4.5-1.4,4.2-4.6c-0.2-1.5,0.1-3-0.1-4.5
			c-0.3-3.1,0.6-4.8,4.1-4.3c3,0.5,3.8-1.1,3.6-3.8c-0.2-1.8,0.1-3.7-0.1-5.5c-0.3-2.8,0.4-4.6,3.7-4.1c2.5,0.4,4.3-0.3,3.9-3.4
			c-0.4-2.8,1.1-3.6,3.6-3.2c3.4,0.5,4.4-1.1,4.1-4.3c-0.2-1.6,0.1-3.3-0.1-5c-0.3-2.8,0.3-4.6,3.7-4.1c3.6,0.6,4.2-1.4,3.9-4.4
			c-0.1-1.5,0.1-3-0.1-4.5c-0.5-3.4,0.8-5,4.4-4.4c2.8,0.4,3.5-1,3.3-3.4c-0.1-1.6,0.1-3.4-0.1-5c-0.4-3.4,0.4-5.5,4.5-4.9
			c2.4,0.4,3.4-0.8,3.2-3.1c-0.1-1.7,0.1-3.3,0-5c-0.3-3.4,0.1-6,4.6-5.2c2.5,0.4,3.2-1,3-3.3c-0.1-1.7,0.1-3.3-0.1-5
			c-0.5-3.8,0.6-5.8,4.8-5c2.2,0.4,3.1-0.7,2.8-2.8c-0.5-3.2,1-4.2,4-3.8c2.3,0.3,4-0.3,3.6-3.2c-0.4-3,1.2-3.5,3.8-3.5
			c7.7,0.1,15.3,0.1,23,0c2.2,0,4.1,0.1,3.7,3.1s1,3.9,3.7,3.6c2.5-0.3,4.4,0.2,3.9,3.4c-0.4,2.7,0.9,3.7,3.4,3.3
			c3.8-0.6,4.6,1.4,4.2,4.6c-0.2,1.5,0.1,3-0.1,4.5c-0.4,3.2,0.8,4.8,4.1,4.2c3-0.5,3.8,1.1,3.5,3.8c-0.2,1.8,0.1,3.7-0.1,5.5
			c-0.3,2.9,0.5,4.6,3.8,4.1c3.1-0.5,4.2,0.9,3.9,4c-0.2,1.5,0.1,3-0.1,4.5c-0.3,3.3,0.2,5.6,4.4,4.9c2.8-0.5,3.5,1,3.3,3.5
			c-0.1,1.8,0.1,3.7-0.1,5.5c-0.3,3.1,0.6,4.8,4,4.3c2.9-0.4,3.9,0.9,3.6,3.7c-0.2,1.8,0.1,3.7-0.1,5.5c-0.4,3.3,0.9,4.7,4.2,4.2
			c2.5-0.4,3.8,0.6,3.5,3.3c-0.3,2.7,1,3.7,3.5,3.3c3.3-0.5,4.5,0.9,4.1,4.2c-0.2,1.8,0.1,3.7-0.1,5.5c-0.3,2.8,0.8,4.1,3.6,3.7
			c3.6-0.6,4.3,1.3,4,4.4c-0.1,1.3,0.1,2.7,0,4c-0.5,3.7,0.6,5.8,4.8,5c2.1-0.4,3.1,0.7,2.9,2.8c-0.3,2.7,0.5,4.3,3.5,3.8
			c3.4-0.5,4.5,1.1,4.1,4.3c-0.1,1.3,0.1,2.7,0,4c-0.4,3.6,0.4,5.9,4.7,5.1c2.1-0.4,3.1,0.6,3,2.8c-0.1,2,0.2,4-0.1,6
			c-0.4,3.4,0.8,5,4.4,4.5c2.8-0.4,3.5,1.1,3.3,3.5c-0.1,1.7,0.1,3.3-0.1,5c-0.4,3.5,0.5,5.5,4.5,4.9c2.4-0.4,3.4,0.9,3.1,3.2
			c-0.3,2.5,0.6,3.9,3.3,3.4c3.6-0.6,4.8,0.9,4.4,4.4c-0.2,1.3,0.1,2.7-0.1,4c-0.4,3.3,0.2,5.6,4.4,5c2.8-0.5,3.4,1.2,3.2,3.6
			c-0.1,1.8,0.1,3.7-0.1,5.5c-0.3,3.1,0.6,4.8,4.1,4.2c2.9-0.5,3.9,0.9,3.6,3.7c-0.2,1.8,0.1,3.7-0.1,5.5c-0.2,2.8,0.4,4.6,3.7,4.1
			c3.1-0.5,4.4,0.8,3.9,3.9c-0.3,2.2,0.9,2.9,3,2.8c1.3-0.1,2.7,0,4,0c64.3,0,128.7,0,193,0c3.2,0,6-0.2,5.4,4.5
			c-0.3,2.5,1.9,2.4,3.5,2.2c3.5-0.5,4.1,1.3,4.1,4.4c-0.1,3.7-0.2,7.4-0.1,11.1h102v-339.3H-1233.3z"/>
		<path class="st2" d="M357.6,1486.3c0-1.5,0.2-3,0.4-4.5C357.8,1483.3,357.6,1484.8,357.6,1486.3L357.6,1486.3z"/>
		<path class="st2" d="M68.7,1406.4c0.1,1.1,0.2,2.2,0.3,3.3C68.9,1408.6,68.8,1407.5,68.7,1406.4L68.7,1406.4z"/>
		<path class="st2" d="M358.5,1480.8c-0.2,0.3-0.3,0.6-0.4,1C358.1,1481.4,358.3,1481.1,358.5,1480.8z"/>
		<path class="st2" d="M77.7,1393.7c-1,0.7-1.1,2.3-1.1,5.6l0,0C76.6,1396,76.6,1394.4,77.7,1393.7z"/>
		<path class="st2" d="M62.8,1399.7c0.3-0.1,0.5-0.1,0.8-0.2C63.3,1399.6,63,1399.6,62.8,1399.7z"/>
		<path class="st2" d="M40.2,1406.5c0.2,0,0.4-0.1,0.7-0.1C40.6,1406.5,40.4,1406.5,40.2,1406.5z"/>
		<path class="st2" d="M83.8,1514.3l0.5-1l0,0L83.8,1514.3z"/>
		<path class="st2" d="M31.4,1414.5c-0.6,0.9-0.6,2.4-0.5,5.1l0,0C30.8,1416.9,30.8,1415.3,31.4,1414.5z"/>
		<path class="st2" d="M16.9,1420.1c-0.2,0.1-0.4,0.3-0.5,0.5C16.5,1420.4,16.7,1420.2,16.9,1420.1z"/>
		<path class="st2" d="M68.6,1411.4c0.1-0.4,0.2-0.7,0.2-1.1C68.9,1410.7,68.8,1411.1,68.6,1411.4z"/>
		<path class="st2" d="M91.6,1393.8c0.1,0.9,0.1,1.8,0.1,2.7C91.7,1395.6,91.7,1394.7,91.6,1393.8z"/>
		<path class="st2" d="M60.9,1406.1l-7.1,0.5L60.9,1406.1L60.9,1406.1z"/>
		<path class="st2" d="M15.9,1421.9c-0.2,1.5-0.3,3-0.2,4.4l0,0C15.6,1424.8,15.7,1423.3,15.9,1421.9z"/>
		<path class="st2" d="M34.8,1413.3l1.1-0.1L34.8,1413.3z"/>
		<path class="st2" d="M106.9,1510.4c0.2-1,0.2-2.1,0.1-3.1l0,0C107.2,1508.4,107.1,1509.4,106.9,1510.4z"/>
		<path class="st2" d="M358.5,1480.8c0.2-0.3,0.4-0.5,0.7-0.6C358.9,1480.3,358.6,1480.5,358.5,1480.8z"/>
		<path class="st2" d="M308.9,1546.3c-0.5,0-1.1,0.1-1.8,0.1C307.8,1546.3,308.4,1546.3,308.9,1546.3z"/>
		<path class="st2" d="M182.8,1465.6L182.8,1465.6c-0.5,0-1,0.1-1.5,0.1C181.8,1465.7,182.3,1465.6,182.8,1465.6z"/>
		<path class="st2" d="M197.8,1445.8l0.4-5.5l0,0L197.8,1445.8z"/>
		<path class="st2" d="M168,1476.4c0-0.7-0.1-1.4-0.2-2.1l0,0C167.9,1475,168,1475.7,168,1476.4z"/>
		<path class="st2" d="M130,1496.4c0-0.7-0.1-1.4-0.2-2.1l0,0C129.9,1495,130,1495.7,130,1496.4z"/>
		<path class="st2" d="M122.2,1500.3l-0.4,5.4L122.2,1500.3L122.2,1500.3z"/>
		<path class="st2" d="M159.8,1485.8l0.4-5.4h0.2h-0.2L159.8,1485.8z"/>
		<path class="st2" d="M145.1,1488.9c0-0.5,0-1.1-0.1-1.6l0,0C145.1,1487.9,145.1,1488.4,145.1,1488.9z"/>
		<path class="st2" d="M334.5,1505c0.4-1.9,0.5-3.8,0.2-5.7l0,0C335,1501.2,334.9,1503.2,334.5,1505z"/>
		<path class="st2" d="M337.2,1493.2c-1.8,0.4-2,2-2.5,6.1l0,0C335.1,1495.2,335.3,1493.6,337.2,1493.2z"/>
		<path class="st2" d="M342.6,1490.1c0,0.9,0,1.9,0.1,3.2l0,0C342.6,1492,342.6,1490.9,342.6,1490.1z"/>
		<path class="st2" d="M327.6,1501.1c-0.4,0.8-0.5,2.1,0,4.1l0,0C327.1,1503.2,327.1,1501.9,327.6,1501.1z"/>
		<path class="st2" d="M329.2,1499.9c0.4-0.1,0.9-0.2,1.3-0.2C330,1499.7,329.6,1499.7,329.2,1499.9z"/>
		<path class="st2" d="M175.6,1469.2c0-0.6-0.1-1.3-0.2-1.9l0,0C175.6,1467.9,175.7,1468.6,175.6,1469.2z"/>
		<path class="st2" d="M38.9,1407.2c-0.6,0.9-0.2,2.5-0.4,5.9l0.2,0.2l-0.2-0.2C38.7,1409.8,38.3,1408.1,38.9,1407.2z"/>
		<path class="st2" d="M317.8,1512.4c-1.9-0.2-3.9-0.9-5.2,1.5l0,0C313.8,1511.6,315.9,1512.2,317.8,1512.4z"/>
		<path class="st2" d="M64.5,1399.5c0.6,0,1.2,0.1,1.9,0.1C65.7,1399.5,65.1,1399.5,64.5,1399.5z"/>
		<path class="st3" d="M-136.5,1570.4c-0.3-2.9,0.6-4.5,3.8-4s4.1-1.2,3.9-4c-0.1-1.6,0.1-3.3-0.1-5c-0.3-3.2,0.8-4.7,4.2-4.3
			c2.6,0.4,3.7-0.8,3.4-3.4c-0.3-2.8,1.3-3.6,3.6-3.2c3.6,0.5,4.3-1.4,4-4.4c-0.1-1.3,0.1-2.7,0-4c-0.3-3.3,0.2-5.6,4.4-5
			c2.3,0.4,3.4-0.7,3.2-3.1s0.7-3.9,3.3-3.5c3.7,0.5,4.7-1.3,4.3-4.6c-0.2-1.5,0.1-3-0.1-4.5c-0.3-3.2,0.7-4.7,4.1-4.2
			c2.5,0.4,3.9-0.6,3.6-3.3c-0.4-3.2,1.6-3.6,4-3.4s3.9-0.6,3.5-3.3c-0.4-2.7,1.3-3.5,3.6-3.2c3.5,0.5,4.3-1.3,4.1-4.4
			c-0.2-1.6,0.1-3.3-0.1-5c-0.3-2.9,0.6-4.5,3.8-4.1c2.7,0.4,4.2-0.5,3.9-3.5c-0.3-3.4,2.2-2.9,4.3-3.1c2.9-0.2,3.2,1.5,3.2,3.8
			c0,0.8,0,1.6,0,2.4c0,2.4,0.2,4.7,0.2,7.1h2.2h1.1h1.1c2.2,0.1,3-0.8,2.9-2.9c0-0.9,0-1.7,0-2.6s0-1.8,0-2.8
			c0-1.7,0.1-3.4,0.1-5.1c-1.1,0-2.2-0.1-3.4-0.1c-0.4,0-0.8,0-1.1,0c-2.4,0.1-3.2-0.9-3.2-3.2c0.1-2,0.7-3.3,2.9-3
			c3.5,0.4,5.3-0.8,5.1-4.6c-0.2-2.1,1.6-2.3,3.1-2.2c2.9,0.2,4.4-0.6,4.1-3.8c-0.2-2.9,1.9-3.1,4-3c2.3,0.1,4-0.4,3.7-3.2
			c-0.3-2.8,1.5-3.3,3.8-3.1c2.4,0.2,3.9-0.6,3.6-3.3c-0.3-3,1.3-3.7,3.9-3.5s5.3,0,8,0c1.3,0,3.2,0,3-1.7c-0.4-6.9,4.6-4.8,8.1-5.1
			c-0.4-2.4-0.3-4.2,0.6-5.3c0.3-0.4,0.8-0.8,1.3-1c0.2-0.1,0.4-0.1,0.6-0.2c0.5-0.1,1-0.2,1.5-0.1c0.6,0,1.3,0.1,1.9,0.2
			c3,0.3,6,0.4,8.9,0.2c0.1-1.4,0.1-2.5,0.2-3.4c0-0.3,0-0.6,0-0.8c0-0.2,0-0.5,0.1-0.7c0-0.2,0.1-0.4,0.1-0.6
			c0.5-1.7,2-1.5,7.6-1.6c-0.1-1.5,0-3,0.2-4.4c0-0.2,0.1-0.4,0.2-0.6s0.2-0.4,0.3-0.6c0.1-0.2,0.3-0.4,0.5-0.5
			c0.3-0.2,0.6-0.3,1-0.4c1.5-0.2,3.1-0.3,4.7-0.2h8.3c-0.1-2.7-0.1-4.2,0.5-5.1c0.4-0.6,1-0.9,1.7-1H33c0.5-0.1,1-0.1,1.4-0.2
			l1.1-0.1l2.6-0.1l0.2,0.2l-0.2-0.2c0.2-3.4-0.1-5,0.4-5.9c0.1-0.1,0.1-0.2,0.2-0.2l0,0c0.1-0.1,0.2-0.2,0.3-0.2
			c0.2-0.1,0.5-0.2,0.8-0.2c0.2,0,0.4-0.1,0.7-0.1h0.8h1H45c2.8,0,5.5,0.1,8.3,0.2l7.1-0.5c0.2-4.2,0.3-5.9,1.9-6.4
			c0.3-0.1,0.5-0.1,0.8-0.2c0.3,0,0.6,0,0.9,0c0.6,0,1.2,0.1,1.9,0.1s1.6,0.2,2.6,0.3l7.6-0.6c0-3.4,0.1-5,1.1-5.6
			c0.4-0.2,0.9-0.4,1.3-0.4c0.5,0,1,0,1.6,0s1.3,0.1,2.1,0.1l1.3,0.1l7.6-0.3l0,0c0.1-1.3,0.1-2.3,0.2-3.1c0-0.5,0.1-1,0.2-1.4
			s0.2-0.7,0.4-1c0.8-1.2,2.3-1.2,6-1.2c4.3,0,8.7,0,13,0c1.9,0,3.4-0.5,3.2-2.7c-0.3-3.4,1.8-3.7,4.4-3.6c4.8,0.1,9.7,0,14.5,0
			c2.5,0,4.3-0.5,4.1-3.5c-0.2-2.7,1.1-3.4,3.6-3.4c17.7,0.1,35.3,0.1,53,0c2.7,0,4.1,0.8,3.8,3.7c-0.2,2.4,1.1,3.3,3.3,3.2
			c0.5,0,1,0,1.5,0c10.2,0.2,10.2,0.2,10.2,10.3c0,2.8,0,5.7,0,8.5c0,3.8,1.3,8.4-5.5,7.7c-2.1-0.2-1.8,2-1.8,3.4c0,5.5,0,11,0,16.4
			h0.1v0.1c1,0,2-0.1,2.9-0.1c0.3,0,0.7,0,1,0.1c3,0.3,3.7-1.2,3.6-3.9c-0.1-4.2,0.2-8.3,0-12.5c-0.1-2.8,0.8-4.1,3.7-3.7
			c3.7,0.6,4-1.5,4-4.4c-0.1-6,0-12-0.1-18c0-2.3-0.1-4.3,3.2-4.2c2.5,0.1,4.8,0,4.3,3.5c-0.3,2.4,1,3.2,3.3,3.1
			c2.5-0.1,5,0.1,7.5-0.1c3-0.2,4.9,0.4,4.5,4c-0.3,2.3,1.1,2.8,3.1,2.7s4,0,6,0c3.3-0.1,6.9-0.7,6.2,4.7c-0.2,1.8,1.3,2,2.7,2
			c2.2,0,4.3,0.1,6.5,0c3.2-0.1,6.6-0.5,5.9,4.6c-0.2,1.8,1.3,2,2.8,2c2.5,0,5,0.1,7.5,0c3-0.2,5.4,0,4.9,4.1
			c-0.3,2.3,1.2,2.9,3.1,2.6c3.4-0.5,5,0.7,4.5,4.3c-0.2,2.1,1.2,2.4,2.9,2.4c2,0,4,0,6,0c3.3-0.1,6.8-0.7,6.4,4.7
			c-0.2,2.5,2.3,1.9,3.8,1.9c2.3,0,4.1,0.3,3.7,3.2s1.1,3.8,3.8,3.6c2-0.1,4,0,6,0c3.1-0.1,6.2-0.4,5.5,4.4
			c-0.3,2.5,1.8,2.4,3.4,2.3c2.8-0.2,4.6,0.5,4.1,3.8c-0.3,2.2,1,3,3,2.8c2.8-0.2,5,0.1,4.5,3.9c-0.3,2.2,1,2.9,3,2.9s4.3,0.1,6.5,0
			c3.4-0.2,6.4-0.3,5.9,4.7c-0.3,2.6,2.1,2.1,3.6,2c2.7-0.2,4.2,0.5,3.8,3.6s1.6,3.3,3.8,3.1c2.6-0.2,4,0.5,3.9,3.5
			s-1.5,3.4-3.8,3.1c-3-0.4-4.4,0.8-4,3.9c0.3,2.3-1.2,2.8-3.1,2.7c-1.7-0.1-3.3,0-5,0c-3,0-4.7,0-5.7,0.6c-0.3,0.2-0.5,0.4-0.7,0.6
			c-0.2,0.3-0.3,0.6-0.4,1c-0.3,1.5-0.4,3-0.4,4.5h0.2v0.1c1.6,0,3.3,0,4.9,0h2.5c0.8,0,1.7,0,2.5,0.1c3.1,0.1,5.6,0,5.6-4.1
			c0-1.9,1.6-2.2,3.3-2.2c5.3,0,10.7,0,16,0c1.9,0,3.4,0.4,3.2,2.7c-0.2,2.9,1.1,3.9,3.8,3.6c3.1-0.4,4.2,1.2,4,4.1
			c-0.1,1.8,0.1,3.7-0.1,5.5c-0.3,3,0.8,4.4,3.9,4.1c0.2,0,0.3,0,0.5,0c5-0.5,1.2,5.5,4.5,6.2c2.6,0.5,6.6-1.1,6.2,4
			c-0.2,2.1,0.9,3.1,3,2.9c3.7-0.5,4.7,1.4,4.3,4.7c-0.1,1.1,0.1,2.3,0,3.5c-0.3,3.4,0.6,5.5,4.6,5.1c1.5-0.2,3.3,0,3.1,2.1
			c-0.4,3.8,1.2,5.2,4.8,4.7c2.1-0.2,3,1,3,3c0,1.7,0.1,3.3,0,5c-0.3,3.3,0.2,5.7,4.4,5.1c2.1-0.3,3.1,0.8,3,2.9
			c-0.2,2.7,0.8,4.2,3.7,3.9c3.5-0.4,4.4,1.3,4.1,4.4c-0.2,1.8,0,3.7,0,5.5c-0.1,2.2,0.7,3.6,3.1,3.3c3.8-0.5,4.5,1.6,4.2,4.8
			c0,0.2,0,0.4,0,0.6h15.9c-0.5-1.3-0.6-2.8-0.3-4.2c0.1-1.1-0.1-2.3,0-3.5c0.3-3-0.4-4.9-3.9-4.4c-2.8,0.4-4-0.7-3.7-3.6
			c0.2-2-0.1-4,0.1-6c0.2-2.8-0.7-4.1-3.6-3.7s-4.5-0.6-4-3.8c0.3-2.1-0.8-3.2-2.9-2.9c-4.3,0.7-5.2-1.4-4.7-5.1
			c0.2-1.3-0.1-2.7,0.1-4c0.4-3.1-0.6-4.8-4.1-4.3c-2.9,0.5-3.9-1-3.6-3.8c0.2-2.1-0.6-3.3-2.8-2.9c-4.7,0.9-5.2-1.8-4.8-5.5
			c0.1-1-0.1-2,0-3c0.4-3.4-0.3-5.6-4.4-4.9c-2.3,0.4-3.5-0.7-3.2-3.1c0.4-3-1-3.9-3.7-3.5c-2.6,0.3-4.3-0.3-3.9-3.4
			c0.4-2.7-1-3.7-3.5-3.3c-3.8,0.6-4.5-1.5-4.2-4.6c0.2-1.6-0.1-3.3,0.1-5c0.3-2.8-0.8-4.1-3.6-3.7c-2.8,0.4-4.4-0.6-4-3.8
			c0.2-1.6-0.1-3.2-2.3-2.9c-3.9,0.6-5.7-0.6-5.5-5c0.2-2.5-2.4-1.7-3.9-1.7c-2.5,0.1-3.9-0.6-3.5-3.4c0.5-3.2-1.4-3.7-3.9-3.4
			c-2.8,0.4-4.1-0.7-3.7-3.6s-1.3-3.2-3.7-3.1c-1.9,0.1-4.4,0.6-3.9-2.7c0.5-3.7-1.6-4.1-4.5-3.9c-1.6,0.1-3.4,0-3.1-2.1
			c0.8-5.2-2.6-4.6-5.8-4.5c-2.2,0.1-4.3-0.1-6.5,0s-3.3-0.6-3-2.8c0.6-3.7-1.5-4.1-4.4-3.9c-1.5,0.1-3.4,0.2-3.1-2
			c0.7-5-2.5-4.8-5.8-4.6c-2.2,0.1-4.3-0.1-6.5,0s-3.3-0.7-2.9-2.9c0.6-3.8-1.6-4-4.4-3.8c-1.4,0.1-3.4,0.4-3.1-2
			c0.7-4.9-2.2-4.9-5.7-4.7c-2.2,0.1-4.3-0.1-6.5,0c-2,0.1-3.4-0.5-3.1-2.7c0.5-3.6-1.4-4.2-4.4-4c-1.5,0.1-3.5,0.2-3.1-2
			c0.8-5.1-2.4-4.9-5.7-4.7c-2,0.1-4-0.1-6,0c-2.4,0.2-3.9-0.4-3.5-3.2c0.4-3-1.2-3.6-3.8-3.5c-5.2,0.1-10.3,0.1-15.5,0
			c-1.6,0-3.8,0.4-3.4-2.2c0.7-4.8-2.3-4.6-5.5-4.4c-2,0.1-4-0.1-6,0c-2.7,0.2-4.2-0.5-3.8-3.5c0.4-2.9-1.2-3.3-3.6-3.2
			c-5.2,0.1-10.3-0.1-15.5,0.1c-2.7,0.1-4.2-0.5-3.7-3.5c0.4-2.8-1.2-3.3-3.6-3.2c-5.2,0.1-10.3-0.1-15.5,0.1
			c-2.7,0.1-4.2-0.6-3.8-3.6c0.3-2.4-0.9-3.1-3.2-3.1c-23.2,0.1-46.3,0.1-69.5,0c-2.1,0-3.7,0.4-3.4,2.9c0.5,3.3-1.3,3.9-4.1,3.8
			c-5.2-0.2-10.3,0-15.5-0.1c-2.2,0-3.6,0.5-3.2,3.1c0.5,3.4-1.3,3.8-4.1,3.7c-5.2-0.2-10.3,0-15.5,0c-1.5,0-3.5-0.2-3.2,2
			c0.7,5-2.3,4.9-5.7,4.7c-2.3-0.1-4.7,0-7,0c-1.6,0-2.8,0.6-2.5,2.3c0.8,4.8-2.3,4.5-5.4,4.4c-2.2-0.1-4.3,0.1-6.5,0
			s-3.7,0.3-3.3,2.9c0.5,3.2-1.2,3.9-4,3.8c-5-0.2-10,0.1-15-0.1c-2.6-0.1-4.3,0.5-3.8,3.5c0.4,2.9-1.2,3.3-3.6,3.2
			c-1.7-0.1-4.3-0.7-3.9,2.2c0.5,4.8-2.4,4.6-5.5,4.4c-2-0.1-4,0.1-6,0c-2.7-0.2-4.2,0.6-3.8,3.6s-1.2,3.5-3.5,3.1
			c-2.8-0.4-4.6,0.3-4.1,3.7c0.4,2.5-1.1,3.1-3.3,3c-2.8-0.1-5.7,0.1-8.5-0.1c-2.2-0.1-3.7,0.4-3.4,3c0.4,3.3-1.3,4-4.1,3.8
			c-1.6-0.1-3.8-0.5-3.4,2.2c0.7,4.8-2.2,4.6-5.4,4.5c-2.2-0.1-4.3,0.1-6.5,0s-3.7,0.2-3.4,2.9c0.4,3.2-1.1,4.2-4,3.8
			c-2.4-0.3-4,0.4-3.6,3.2c0.5,3.1-1.3,3.7-3.8,3.4c-2.5-0.3-4.2,0.4-3.8,3.5c0.4,2.8-1.1,3.5-3.5,3.2c-2.8-0.4-4.5,0.4-4.1,3.7
			c0.3,2.1-0.7,3.2-2.8,2.9c-3.7-0.5-5.2,0.7-4.8,4.6c0.2,3.1-2.5,2-4,2c-2.5-0.1-3.8,0.6-3.5,3.3c0.4,3.1-1.3,3.8-3.9,3.4
			c-3.3-0.4-4.1,1.2-3.8,4.1c0.2,1.6-0.1,3.3,0.1,5c0.3,3.1-0.5,4.8-4,4.3c-2.3-0.4-4,0.2-3.6,3.1s-1,3.9-3.7,3.5
			c-2.5-0.3-4.3,0.2-3.9,3.4c0.4,2.8-1.1,3.6-3.5,3.2c-3.5-0.5-4.4,1.2-4.1,4.3c0.2,1.5-0.1,3,0.1,4.5c0.3,3.2-0.3,5.3-4.2,4.6
			c-2.5-0.4-3.8,0.5-3.5,3.2c0.4,3.1-1.4,3.7-3.9,3.4c-2.8-0.4-4,0.8-3.7,3.6c0.2,2-0.1,4,0.1,6c0.2,2.8-0.7,4.1-3.6,3.7
			s-4.5,0.5-4.1,3.8c0.3,2.1-0.7,3.3-2.8,2.9c-4.3-0.7-5.2,1.5-4.8,5.1c0.2,1.6-0.1,3.3,0.1,5c0.2,2.3-0.6,3.7-3.1,3.2
			c-4.5-0.8-4.9,1.9-4.6,5.2c0.2,1.8,0,3.7,0,5.5c0,0.5,0,0.9-0.1,1.3h7.8C-136.4,1571.3-136.4,1570.8-136.5,1570.4z"/>
		<path class="st4" d="M-113.5,1568.4c-0.1-1.5,0.1-3,0-4.5c-0.3-3.1,0.6-4.8,4.1-4.4c2.2,0.3,3.5-0.6,3.3-3.1
			c-0.1-0.6-0.1-1.3,0.1-1.9c4.8-1.1,7.1-5.7,10.8-7.9c2.2-1.3,4.4-1,4.2-4.4c-0.3-3.6,2.7-2.5,4.6-2.7c2.4-0.2,3.2,0.9,3.2,3.2
			c0,2.5-0.7,3.9-3.4,3.5c-3.5-0.5-4.3,1.5-4,4.5c0.1,1.6-0.1,3.3,0,5c0.2,2.8-0.6,4.6-3.8,4.2c-2.5-0.2-4.3,0.3-4,3.4
			c0.3,2.6-1.4,3.1-3.5,2.9c-3.3-0.3-4.6,1.2-4.2,4.4c0,0.3,0,0.7,0,1h395.5c0.1-5.2,0.8-5.3,7.2-5.4c0.1-4.6,0.6-9.3,0.2-13.9
			s0.8-7,5.9-6.1c0.6,0.1,1.3,0.1,1.9,0c0-4.3-0.1-8.6-0.1-12.9c0-8.6-0.5-6.9,7.1-7.2l0.9-12.3l0,0c1.3-2.4,3.3-1.7,5.2-1.5
			c0.6,0.1,1.2,0,1.8-0.1c-0.9-3.7,0.3-5,2.1-5.7c0.7-0.2,1.4-0.4,2.1-0.5h0.2c1.2-0.1,2.4-0.4,3.5-0.9c-0.5-2-0.5-3.3,0-4.1
			c0.1-0.3,0.3-0.5,0.6-0.7c0.3-0.2,0.7-0.4,1.1-0.5s0.9-0.2,1.3-0.2c1.4,0,2.8-0.1,4.2-0.3c0.5-4.1,0.7-5.7,2.5-6.1
			c1.8-0.2,3.7-0.2,5.5,0.1c0-1.3-0.1-2.3-0.1-3.2c0-0.6,0-1.2,0.1-1.7c0-0.2,0.1-0.4,0.1-0.6s0.1-0.3,0.2-0.5
			c0.1-0.1,0.1-0.3,0.2-0.4c0.8-0.9,2.5-0.5,6.1-0.5c2.8-0.1,5.6,0,8.3,0c0-1.5,0.2-3,0.4-4.5c0.1-0.4,0.2-0.7,0.4-1
			c0.2-0.3,0.4-0.5,0.7-0.6c1-0.6,2.7-0.6,5.7-0.6c1.7,0,3.3-0.1,5,0c1.9,0.1,3.4-0.4,3.1-2.7c-0.4-3.1,1-4.3,4-3.9
			c2.3,0.3,3.7-0.2,3.8-3.1s-1.3-3.8-3.9-3.5c-2.2,0.2-4.2-0.1-3.8-3.1s-1.2-3.7-3.8-3.6c-1.5,0.1-3.9,0.6-3.6-2
			c0.5-5-2.4-4.9-5.9-4.7c-2.2,0.1-4.3,0-6.5,0s-3.3-0.7-3-2.9c0.5-3.8-1.7-4.1-4.5-3.9c-2,0.2-3.3-0.6-3-2.8c0.4-3.3-1.3-4-4.1-3.8
			c-1.7,0.1-3.8,0.2-3.4-2.3c0.7-4.8-2.4-4.5-5.5-4.4c-2,0.1-4-0.1-6,0c-2.7,0.2-4.2-0.6-3.8-3.6s-1.4-3.2-3.7-3.2
			c-1.5,0-4,0.6-3.8-1.9c0.5-5.4-3-4.8-6.4-4.7c-2,0.1-4,0-6,0c-1.7,0-3.2-0.4-2.9-2.4c0.4-3.6-1.1-4.8-4.5-4.3
			c-1.9,0.3-3.4-0.3-3.1-2.6c0.5-4-1.9-4.2-4.9-4.1c-2.5,0.1-5,0-7.5,0c-1.5,0-3-0.3-2.8-2c0.7-5.1-2.7-4.6-5.9-4.6
			c-2.2,0.1-4.3,0-6.5,0c-1.4,0-3-0.2-2.7-2c0.7-5.4-2.8-4.8-6.2-4.7c-2,0.1-4,0-6,0s-3.4-0.4-3.1-2.7c0.5-3.6-1.5-4.2-4.5-4
			c-2.5,0.2-5-0.1-7.5,0.1c-2.3,0.1-3.6-0.7-3.3-3.1c0.4-3.6-1.8-3.4-4.3-3.5c-3.3-0.1-3.3,1.9-3.2,4.2c0.1,6-0.1,12,0.1,18
			c0.1,2.9-0.3,5-4,4.4c-2.8-0.4-3.8,0.9-3.7,3.7c0.2,4.1-0.1,8.3,0,12.5c0.1,2.7-0.7,4.1-3.6,3.9c-0.3,0-0.7,0-1-0.1
			c-1,0-2,0.1-2.9,0.1c0,1.9,0,3.9,0,5.8c0,7.2,0,7.2-7,7.7l-0.1,0.4h-0.2h-0.1h-0.1l0,0l-0.4,5.5c-0.5,0.7-1.2,1.2-2,1.4
			c-0.5,0.1-0.9,0.1-1.4,0.1c-1.2-0.2-2.5-0.2-3.8,0c0,0.8,0,1.6-0.1,2.5s0,1.6,0,2.5c0,7.1,0,7.1-6.8,7.6c0,0.2-0.1,0.3-0.2,0.4
			s-0.3,0.1-0.4,0.1l-0.3,5.3l0,0c-0.3,0.7-0.9,1.2-1.6,1.5c-1.8,0.7-4-0.5-5.7,0.2c0.1,0.6,0.2,1.3,0.2,1.9c0,2.2-1.1,3.3-2.7,3.8
			c-0.4,0.1-0.9,0.2-1.3,0.2c-1,0.1-2,0.1-3,0l-0.9,1.2c0.2,0.7,0.2,1.4,0.2,2.1c-0.1,2.4-1.4,3-3.2,3.2c-0.4,0.1-0.9,0.1-1.4,0.1
			h-1.4c-0.5,0-0.9,0-1.4,0.1l-0.1,0.4h-0.2h-0.2l-0.4,5.4c-2.4,2.8-5.5,1-8.3,1.4c-0.5,0.1-1.1,0.1-1.6,0.1c-1.6,0.1-3.2,0-4.9,0
			c0.1,0.5,0.1,1.1,0.1,1.6c0.1,1.2-0.3,2.4-1.1,3.3c-0.4,0.4-0.9,0.7-1.4,0.8c-0.4,0.1-0.8,0.2-1.2,0.2c-0.8,0-1.6,0-2.4-0.1
			c-2.7-0.4-5.6,0-8.3,0l-0.9,1.2c0.2,0.7,0.2,1.4,0.2,2.1c0,2.4-1.4,3-3.2,3.3c-0.7,0.1-1.4,0.1-2.1,0.1s-1.4,0-2.1,0.1l-0.1,0.4
			h-0.1h-0.1h-0.2l-0.4,5.4c-2.1,2.9-5,1-7.6,1.4c-1.2,0.2-2.4,0.2-3.6,0.2s-2.4,0-3.7,0c0.2,1,0.2,2.1-0.1,3.1
			c-0.1,0.7-0.5,1.3-0.9,1.7s-0.9,0.6-1.4,0.8c-1.2,0.3-2.4,0.4-3.7,0.2c-5.4-0.5-10.8,0-16.2,0l-0.2,0.2l-0.3-0.1l-0.5,1v4
			c-3,3.1-6.7,1.1-10.1,1.3c-3,0.2-5.2,0.2-4.8,4.2c0.3,3.3-2.4,2.5-4.3,2.5c-15.3,0-30.6,0-45.9,0H7c-7,0-7,0-6.5-7
			c-9,0.1-18.1,0-27.1,0.3c-5.3,0.1-2.7-4.1-3.8-6.3c-2-0.1-3.9-0.2-5.9-0.3h-2c-6.9,0-6.9,0-7.2-6.7l-7.4-0.2
			c-1.5,0.1-3,0.1-4.5,0.2c-0.6,0-1.3,0.1-1.9,0.2c-0.2,5.6-4.4,6.7-8.6,7.9c-0.3,0.1-0.4,1.2-0.3,1.9c0.3,2.9-1.1,3.9-3.8,3.6
			c-2.4-0.3-3.8,0.6-3.6,3.3c0.2,3.9-2.8,2.8-4.9,3c-2.7,0.2-2.8-1.5-2.9-3.5c-0.2-2.8,1.3-3.5,3.7-3.3c2.8,0.3,3.9-1,3.7-3.8
			c-0.1-1.6,0.1-3.3,0-5c-0.2-3.1,0.8-4.8,4.2-4.5c1.2,0.1,3.4,0.4,3.3-1.2c-0.4-5.3,2.6-5.4,6.6-5.9c2.8-0.4,0.8-4,1.6-6.1
			c-0.1-2.4-0.2-4.7-0.2-7.1c0-0.8,0-1.6,0-2.4c0-2.3-0.2-4-3.2-3.8c-2.2,0.1-4.7-0.3-4.3,3.1c0.3,3-1.2,3.9-3.9,3.5
			c-3.2-0.5-4.1,1.2-3.8,4.1c0.2,1.6-0.1,3.3,0.1,5c0.3,3.1-0.6,4.9-4.1,4.4c-2.3-0.3-4,0.4-3.6,3.2c0.4,2.8-1,3.6-3.5,3.3
			s-4.4,0.2-4,3.4c0.3,2.7-1.1,3.7-3.6,3.3c-3.4-0.5-4.5,1-4.1,4.2c0.2,1.5-0.1,3,0.1,4.5c0.4,3.3-0.6,5.1-4.3,4.6
			c-2.7-0.4-3.6,1.1-3.3,3.5s-0.8,3.5-3.2,3.1c-4.2-0.7-4.8,1.6-4.4,5c0.1,1.3-0.1,2.7,0,4c0.3,3-0.4,4.9-4,4.4
			c-2.3-0.3-4,0.5-3.6,3.2c0.3,2.6-0.8,3.8-3.4,3.4c-3.3-0.5-4.5,1-4.2,4.3c0.2,1.6-0.1,3.3,0.1,5c0.2,2.9-0.7,4.5-3.9,4
			s-4.1,1.1-3.8,4c0,0.4,0.1,0.9,0.1,1.3h22.6C-113.3,1570.5-113.3,1569.4-113.5,1568.4z"/>
		<path class="st4" d="M208.7,1426.3c-1,0-2,0.1-2.9,0.1l0,0C206.7,1426.4,207.7,1426.3,208.7,1426.3z"/>
		<path class="st5" d="M351,1493.2c-2.8,0-5.5,0.1-8.3,0.1c-0.1,6.5-0.1,6.5-8,6c0.2,1.9,0.1,3.8-0.2,5.7c-0.1,0.4-0.3,0.8-0.7,1.1
			c-1,0.9-2.9,0.5-6.2-0.7c-0.2,7.7-0.2,7.7-7.9,8v0.1l0,0c0,1.6,0.1,3.2,0.1,4.9c0,9.8,0.7,7.8-8.1,8.1c0.1,4.3,0.2,8.6,0.3,12.9
			c0,5.4,0,6.7-3.1,7c-0.5,0-1.1,0.1-1.8,0.1h-2.4c0,4-0.1,8-0.1,11.9c0,9.1,0.5,8-7.9,8.1c0,1.8,0,3.6,0,5.4h167.2
			c0-0.2,0-0.4,0-0.6c0.3-3.1-0.4-5.3-4.2-4.8c-2.4,0.3-3.2-1-3.1-3.3c0.1-1.8-0.1-3.7,0-5.5c0.3-3.1-0.7-4.8-4.1-4.4
			c-2.9,0.4-3.9-1.2-3.7-3.9c0.2-2.1-0.9-3.2-3-2.9c-4.2,0.6-4.7-1.8-4.4-5.1c0.1-1.6,0-3.3,0-5c0-2-0.9-3.3-3-3
			c-3.7,0.4-5.2-0.9-4.8-4.7c0.2-2.2-1.6-2.3-3.1-2.1c-4,0.5-4.9-1.7-4.6-5.1c0.1-1.2-0.1-2.3,0-3.5c0.4-3.3-0.7-5.1-4.3-4.7
			c-2.1,0.3-3.2-0.7-3-2.9c0.4-5.1-3.6-3.5-6.2-4c-3.3-0.7,0.5-6.7-4.5-6.2c-0.2,0-0.3,0-0.5,0c-3.1,0.4-4.2-1.1-3.9-4.1
			c0.2-1.8-0.1-3.7,0.1-5.5c0.2-2.9-0.9-4.5-4-4.1c-2.7,0.3-4.1-0.7-3.8-3.6c0.2-2.3-1.3-2.7-3.2-2.7c-5.3,0-10.7,0-16,0
			c-1.7,0-3.3,0.3-3.3,2.2c0,4.1-2.5,4.3-5.6,4.1c-0.8,0-1.7-0.1-2.5-0.1h-2.5c-1.6,0-3.3,0-4.9,0
			C357.9,1493.2,357.9,1493.2,351,1493.2z"/>
		<path class="st5" d="M91.7,1396.4c0,0.6-0.1,1.2-0.2,1.7c-0.5,1.4-1.7,2.2-4.8,1.7c-2-0.3-2.7,1.1-2.5,2.8
			c0.4,3.3-1.4,3.8-4.2,3.7c-3.8-0.2-7.5-0.1-11.3-0.1v0.1l0,0c0.1,1.1,0.2,2.2,0.3,3.3c0,0.2,0,0.4,0,0.6c0,0.4-0.1,0.8-0.2,1.1
			c-0.5,1.4-1.8,2.1-4.9,1.7c-2.1-0.3-2.6,1.2-2.4,2.9c0.3,3.2-1.2,4.1-4.1,3.9c-1.8-0.2-3.7,0-5.5,0c-3.1-0.1-6.2-0.4-5.7,4.4
			c0.2,2.1-1.5,2.3-3.1,2.2c-2.9-0.2-5,0.2-4.5,3.9c0.3,2.2-0.9,3-3,2.8c-0.5,0-1,0-1.5,0c-5.4-0.4-1.7,4.9-4,6.4
			c-2.1,1.4-6.8-1.9-6.6,3.5c0.1,3.2-1.6,3.5-4.1,3.4s-5,0.1-7.5,0s-4,0.6-3.7,3.3c0.3,3.1-1.4,3.7-3.9,3.4
			c-2.2-0.2-4.1,0.1-3.7,3.1s-1,3.9-3.8,3.7c-1.4-0.1-3.7-0.5-3.7,1.5c0.2,4.2-1.6,5.6-5.6,5.1c-1.8-0.2-2.3,1.2-2.1,2.6
			c0.3,3-0.8,4.4-4,4c-2.7-0.4-4.1,0.6-3.8,3.6c0.3,2.4-1,3.3-3.2,3.1c-0.2,0-0.3,0-0.5,0c-5.8-1.2-2.1,5.6-5.3,6.4
			c-2.7,0.7-6.9-1.2-6.2,4.4c0.2,1.6-0.6,2.7-2.3,2.5c-0.9-0.2-1.8-0.2-2.7-0.1c-0.4,0.1-0.8,0.2-1.2,0.4c-0.2,0.1-0.3,0.2-0.4,0.3
			c-1.3,1.2-1.2,3.6-1.2,6l0,0c0,2.2,0,4.5,0.1,6.7h8.4c7,0,7,0,6.6,7c8.1-0.1,16.2,0.2,24.2-0.3c5-0.3,7.5,1,6.8,6.3l64.8,0.1h1
			c1,0.1,2-0.3,2.6-1.1c-0.7-2.6-0.4-4.3,1.2-4.9c0.3-0.1,0.7-0.2,1-0.3c0.7-0.1,1.4-0.1,2.1,0c0.8,0.1,1.6,0.1,2.3,0.1
			c2.3,0.1,4.7,0,7,0h1.6l0,0l0.3,0.1l0.2-0.2c-1-6.9-0.9-7.1,6-6.9c5.4,0.2,10.9-1.2,16.2,1l0,0c1.2,0,2.4,0,3.7,0
			c1.2,0,2.4-0.1,3.6-0.2c2.5-0.4,5.5,1.5,7.6-1.4c-3.8,0-7.6-0.1-11.4-0.1c-1.9,0-3.2-0.6-3.2-2.8c0-2.2,1.1-2.9,3.1-2.9l11.9,0.3
			l0,0h0.2h0.1h0.1l0.1-0.4c-0.8-7.2,0.6-8.3,7.1-5.6l0,0l0.9-1.2c-2.1-5.8-1.4-6.8,4.5-6.8c3.3,0,6.7-0.5,9.8,1l0,0
			c1.6,0,3.3,0.1,4.9,0c0.5,0,1.1-0.1,1.6-0.1c2.8-0.4,5.9,1.5,8.3-1.4c-3.8,0-7.6-0.1-11.4-0.1c-1.9,0-3.1-0.6-3.2-2.8
			c-0.1-2.2,1.1-2.9,3.1-2.9l11.8,0.3h0.2h0.2l0.1-0.4c-0.8-7.2,0.6-8.3,7.1-5.6l0,0l0.9-1.2c-1.3-1.9-1.8-4.4-0.3-5.8
			c2-1.9,4.7-1.4,7.1,0l0,0c1.8-0.7,4,0.5,5.7-0.2c0.7-0.3,1.2-0.8,1.6-1.5c-0.5,0-1,0.1-1.5,0.1c-0.2,0-0.3,0-0.5,0
			c-2.1-0.3-5.5,1.3-5.3-3s3.5-2.2,5.6-2.6c0.7,0,1.3,0.1,1.9,0.3l0,0c0.2,0,0.3,0,0.4-0.1s0.2-0.3,0.2-0.4
			c-0.1-2.1-0.4-4.3-0.4-6.4c0-7.1,0.1-7.2,7.3-6.1l0,0c1.2-0.2,2.5-0.2,3.8,0c0.5,0,0.9,0,1.4-0.1c0.8-0.2,1.5-0.7,2-1.4
			c-1.5,0-3-0.2-4.4-0.1c-2.2,0.1-2.8-1.1-2.8-3.1s1-2.7,2.8-2.6c1.6,0.1,3.3,0.2,4.9,0.3l0,0h0.1h0.1h0.2l0.1-0.4
			c-0.1-2.1-0.3-4.2-0.3-6.3c0-7.3,0-7.3,7.3-7.2c0-5.5,0-11,0-16.4c0-1.4-0.3-3.7,1.8-3.4c6.7,0.8,5.4-3.9,5.5-7.7
			c0-2.8,0-5.7,0-8.5c0-10.1,0-10.1-10.2-10.3c-0.5,0-1,0-1.5,0c-2.2,0.1-3.6-0.9-3.3-3.2c0.3-2.9-1.1-3.7-3.8-3.7
			c-17.7,0.1-35.3,0.1-53,0c-2.5,0-3.8,0.7-3.6,3.4c0.3,3-1.6,3.6-4.1,3.5c-4.8-0.1-9.7,0.1-14.5,0c-2.6-0.1-4.7,0.2-4.4,3.6
			c0.2,2.3-1.2,2.8-3.2,2.7c-4.3,0-8.7,0-13,0c-3.7,0-5.2,0-6,1.2c-0.2,0.3-0.3,0.6-0.4,1c-0.1,0.5-0.2,0.9-0.2,1.4
			c-0.1,0.8-0.1,1.9-0.2,3.1c0,0.2,0,0.4,0,0.7C91.7,1394.7,91.7,1395.6,91.7,1396.4z"/>
		<path class="st5" d="M91.6,1393.1L91.6,1393.1c0.1-1.3,0.1-2.3,0.2-3.1C91.7,1390.8,91.6,1391.8,91.6,1393.1z"/>
		<path class="st5" d="M92,1388.6c0.1-0.4,0.2-0.7,0.4-1C92.2,1387.9,92.1,1388.2,92,1388.6z"/>
		<path class="st5" d="M91.8,1390c0-0.5,0.1-1,0.2-1.4C91.9,1389,91.8,1389.5,91.8,1390z"/>
		<path class="st5" d="M181.2,1467.1c0.7-0.3,1.2-0.8,1.6-1.5l0,0C182.5,1466.3,181.9,1466.8,181.2,1467.1z"/>
		<path class="st5" d="M145,1487.3L145,1487.3c1.6,0,3.3,0.1,4.9,0C148.3,1487.4,146.6,1487.3,145,1487.3z"/>
		<path class="st5" d="M129.8,1494.3l0.9-1.2L129.8,1494.3L129.8,1494.3z"/>
		<path class="st5" d="M183.1,1460.3L183.1,1460.3c0.2,0,0.3,0,0.4-0.1C183.4,1460.3,183.2,1460.4,183.1,1460.3z"/>
		<path class="st5" d="M175.5,1467.3L175.5,1467.3c1.8-0.7,4,0.5,5.7-0.2C179.5,1467.8,177.3,1466.6,175.5,1467.3z"/>
		<path class="st5" d="M167.8,1474.3l0.9-1.2L167.8,1474.3L167.8,1474.3z"/>
		<path class="st5" d="M84.3,1513.3l0.2,0.2L84.3,1513.3z"/>
		<path class="st5" d="M190.6,1447.3L190.6,1447.3c1.2-0.2,2.5-0.2,3.8,0C193.1,1447.1,191.9,1447.1,190.6,1447.3z"/>
		<path class="st5" d="M194.4,1447.3c0.5,0,0.9,0,1.4-0.1C195.3,1447.3,194.8,1447.3,194.4,1447.3z"/>
		<path class="st2" d="M-61.9,1499.1c-4,0.6-7,0.7-6.6,5.9c0.1,1.6-2.1,1.4-3.3,1.2c-3.4-0.3-4.4,1.4-4.2,4.5c0.1,1.7-0.1,3.3,0,5
			c0.2,2.8-0.9,4.1-3.7,3.8c-2.4-0.2-3.8,0.5-3.7,3.3c0.1,2,0.2,3.8,2.9,3.5c2.1-0.2,5.1,1,4.9-3c-0.2-2.7,1.2-3.6,3.6-3.3
			c2.7,0.3,4.1-0.8,3.8-3.6c-0.1-0.6,0-1.8,0.3-1.9c4.2-1.2,8.4-2.3,8.6-7.9c0.6-0.2,1.3-0.2,1.9-0.2c1.5-0.1,3-0.1,4.5-0.2
			c0-4.5-0.2-5.9,1.1-6.4c0.4-0.1,0.7-0.2,1.1-0.2h0.7c0.8,0,1.8,0,3.1,0h1.4c0-2.4-0.2-4.8,1.2-6c0.1-0.1,0.3-0.2,0.4-0.3
			c0.4-0.2,0.8-0.3,1.2-0.4c0.9-0.1,1.8-0.1,2.7,0.1c1.7,0.3,2.5-0.9,2.3-2.5c-0.8-5.6,3.4-3.7,6.2-4.4c3.2-0.8-0.5-7.6,5.3-6.4
			c0.2,0,0.3,0,0.5,0c2.3,0.2,3.6-0.7,3.2-3.1c-0.4-2.9,1.1-3.9,3.8-3.6c3.1,0.4,4.2-1,4-4c-0.1-1.5,0.4-2.9,2.1-2.6
			c4,0.5,5.7-0.9,5.6-5.1c-0.1-2,2.3-1.5,3.7-1.5c2.7,0.2,4.1-0.8,3.8-3.7s1.5-3.3,3.7-3.1c2.6,0.2,4.3-0.3,3.9-3.4
			c-0.3-2.8,1.2-3.4,3.7-3.3s5-0.1,7.5,0s4.2-0.2,4.1-3.4c-0.2-5.4,4.5-2.1,6.6-3.5c2.3-1.5-1.4-6.8,4-6.4c0.5,0,1,0,1.5,0
			c2,0.1,3.3-0.6,3-2.8c-0.5-3.7,1.6-4.2,4.5-3.9c1.6,0.1,3.3-0.1,3.1-2.2c-0.5-4.8,2.6-4.5,5.7-4.4c1.8,0.1,3.7-0.1,5.5,0
			c2.9,0.3,4.5-0.6,4.1-3.9c-0.2-1.7,0.3-3.2,2.4-2.9c3.1,0.4,4.4-0.3,4.9-1.7c0.1-0.4,0.2-0.7,0.2-1.1c0-0.2,0-0.4,0-0.6
			c0-1.1-0.1-2.2-0.3-3.3l-7.8-0.3l-7.1,0.5c-0.3,6.5-0.3,6.4-6.9,6.5c-2.8,0-5.6,0-8.4,0l0.2,0.2l-0.2-0.2
			c-0.1,7.6,0.7,6.4-7.5,6.5c-0.4,6.7-0.4,6.7-7,6.7h-8.3c1.4,7-3.2,7-7.9,7.1c0.4,2.9,0.7,5-3.7,5.5c-3.7,0.4-7.4,0.5-11.2,0.6
			c0,3.8,0.3,7.8-5.7,6.9c-1.8-0.3-2.1,1.4-1.9,2.8c0.3,3.2-1.3,4.1-4.2,3.8c-2.4-0.3-3.9,0.5-3.6,3.3s-1.2,3.5-3.6,3.3
			c-2.9-0.3-4.4,0.7-4.1,3.9c0.3,3.2-1.9,3-4,2.8c-2.5-0.2-3.8,0.6-3.5,3.3c0.3,2.7-1,3.7-3.5,3.4c-2.8-0.3-4.1,0.4-4.3,3.7
			c-0.4,5.3-4.9,1.8-7.3,2.9c0,1.7,0,3.4-0.1,5.1c0,0.9,0,1.8,0,2.8s0,1.8,0,2.6c0,2.1-0.8,3.1-2.9,2.9H-57h-1.1h-2.2l0,0
			C-61,1495.1-59,1498.7-61.9,1499.1z"/>
		<path class="st2" d="M80,1406.4c2.8,0.1,4.5-0.4,4.2-3.7c-0.2-1.7,0.5-3.1,2.5-2.8c3.1,0.5,4.4-0.3,4.8-1.7
			c0.2-0.6,0.3-1.2,0.2-1.7c0-0.9-0.1-1.8-0.1-2.7c0-0.2,0-0.4,0-0.7l-7.6,0.3c0,6.6,0,6.6-7.4,5.9l0,0l-7.6,0.6l-0.3,6.4
			C72.5,1406.3,76.3,1406.2,80,1406.4z"/>
		<path class="st2" d="M76.6,1399.3l-7.6,0.6L76.6,1399.3L76.6,1399.3z"/>
		<path class="st2" d="M91.7,1396.4c0,0.6-0.1,1.2-0.2,1.7C91.6,1397.6,91.7,1397,91.7,1396.4z"/>
		<path class="st5" d="M46.9,1413.1c6.6,0,6.6,0,6.9-6.5c-2.8-0.1-5.5-0.2-8.3-0.2h-2.7h-1H41c-0.2,0-0.5,0.1-0.7,0.1
			c-0.3,0-0.5,0.1-0.8,0.2c-0.1,0.1-0.2,0.1-0.3,0.2l0,0c-0.1,0.1-0.1,0.1-0.2,0.2c-0.6,0.9-0.2,2.5-0.4,5.9
			C41.3,1413.1,44.1,1413.1,46.9,1413.1z"/>
		<path class="st5" d="M39.5,1406.8c0.2-0.1,0.5-0.2,0.8-0.2C39.9,1406.6,39.7,1406.6,39.5,1406.8z"/>
		<path class="st5" d="M39.1,1407c0.1-0.1,0.2-0.2,0.3-0.2C39.3,1406.8,39.2,1406.9,39.1,1407z"/>
		<path class="st5" d="M38.9,1407.2c0.1-0.1,0.1-0.2,0.2-0.2C39,1407.1,39,1407.1,38.9,1407.2z"/>
		<path class="st5" d="M15.7,1426.3L15.7,1426.3l8.3,0.1c6.6,0,6.6,0,7-6.7h-0.1v-0.1h-8.3c-1.6-0.1-3.1,0-4.7,0.2
			c-0.4,0.1-0.7,0.2-1,0.4c-0.2,0.1-0.4,0.3-0.5,0.5s-0.3,0.4-0.3,0.6c-0.1,0.2-0.1,0.4-0.2,0.6
			C15.7,1423.4,15.6,1424.9,15.7,1426.3L15.7,1426.3L15.7,1426.3z"/>
		<path class="st5" d="M15.9,1421.9c0-0.2,0.1-0.4,0.2-0.6C16,1421.4,15.9,1421.6,15.9,1421.9z"/>
		<path class="st5" d="M16,1421.2c0.1-0.2,0.2-0.4,0.3-0.6C16.2,1420.8,16.1,1421,16,1421.2z"/>
		<path class="st5" d="M16.9,1420.1c0.3-0.2,0.6-0.3,1-0.4C17.6,1419.8,17.2,1419.9,16.9,1420.1z"/>
		<path class="st5" d="M-7.1,1439.5L-7.1,1439.5L-7.1,1439.5c3.8-0.1,7.5-0.1,11.2-0.6c4.4-0.5,4.1-2.7,3.7-5.5H7.7v-0.1
			c-3,0.1-6,0-8.9-0.2c-0.6-0.1-1.2-0.2-1.9-0.2c-0.5,0-1,0-1.5,0.1c-0.2,0-0.4,0.1-0.6,0.2c-0.5,0.2-1,0.6-1.3,1
			C-7.4,1435.4-7.5,1437.2-7.1,1439.5z"/>
		<path class="st5" d="M7.8,1433.4L7.8,1433.4c4.7,0.1,9.4,0,7.9-7l0,0v-0.1c-5.6,0.1-7.1-0.1-7.6,1.6c0,0.2-0.1,0.4-0.1,0.6
			s-0.1,0.4-0.1,0.7c0,0.3,0,0.5,0,0.8C8,1430.9,7.9,1432,7.8,1433.4L7.8,1433.4L7.8,1433.4z"/>
		<path class="st5" d="M7.9,1429.1c0-0.2,0-0.5,0.1-0.7C8,1428.7,8,1428.9,7.9,1429.1z"/>
		<path class="st5" d="M8,1428.5c0-0.2,0.1-0.4,0.1-0.6C8.1,1428.1,8,1428.3,8,1428.5z"/>
		<path class="st5" d="M7.9,1430c0,0.9-0.1,2-0.2,3.4l0,0C7.8,1432,7.9,1430.9,7.9,1430z"/>
		<path class="st5" d="M68.7,1406.4L68.7,1406.4L68.7,1406.4l0.3-6.4c-1-0.1-1.8-0.2-2.6-0.3c-0.8-0.1-1.4-0.1-1.9-0.1
			c-0.3,0-0.6,0-0.9,0s-0.6,0.1-0.8,0.2c-1.6,0.5-1.7,2.3-1.9,6.4l0,0L68.7,1406.4z"/>
		<path class="st5" d="M62.8,1399.7c-1.6,0.5-1.7,2.3-1.9,6.4l0,0C61.1,1401.9,61.2,1400.2,62.8,1399.7z"/>
		<path class="st5" d="M30.9,1419.6L30.9,1419.6L30.9,1419.6c8.3,0,7.5,1.2,7.6-6.4l-2.6,0.1l-1.1,0.1c-0.5,0-1,0.1-1.4,0.2h-0.2
			c-0.7,0.1-1.3,0.4-1.7,1C30.8,1415.3,30.8,1416.9,30.9,1419.6z"/>
		<path class="st5" d="M33.1,1413.5c-0.7,0.1-1.3,0.4-1.7,1C31.8,1413.9,32.4,1413.6,33.1,1413.5z"/>
		<path class="st5" d="M33.4,1413.4c0.5-0.1,1-0.1,1.4-0.2C34.3,1413.3,33.8,1413.4,33.4,1413.4z"/>
		<path class="st5" d="M76.6,1399.3c7.4,0.7,7.4,0.7,7.4-5.9l-1.3-0.1c-0.8-0.1-1.5-0.1-2.1-0.1c-0.5,0-1,0-1.6,0
			c-0.5,0-0.9,0.2-1.3,0.4C76.6,1394.4,76.6,1396,76.6,1399.3z"/>
		<path class="st5" d="M77.7,1393.7c0.4-0.2,0.9-0.4,1.3-0.4C78.6,1393.3,78.1,1393.5,77.7,1393.7z"/>
		<path class="st5" d="M80.6,1393.2c0.6,0,1.3,0.1,2.1,0.1C81.9,1393.3,81.2,1393.2,80.6,1393.2z"/>
		<path class="st3" d="M66.5,1519.5h-1l-64.8-0.1v0.1H0.6c-0.5,7-0.5,7,6.5,7h11.5c15.3,0,30.6,0,45.9,0c1.8,0,4.6,0.8,4.3-2.5
			c-0.3-4,1.9-3.9,4.8-4.2c3.4-0.3,7.1,1.8,10.1-1.3H69C68.4,1519.2,67.4,1519.6,66.5,1519.5z"/>
		<path class="st3" d="M69.1,1518.3L69.1,1518.3c-0.6,0.8-1.6,1.2-2.6,1.1C67.5,1519.6,68.5,1519.1,69.1,1518.3z"/>
		<path class="st6" d="M296.7,1566.3L296.7,1566.3L296.7,1566.3c-6.5,0.1-7.2,0.1-7.3,5.4h7.3
			C296.7,1569.9,296.7,1568.1,296.7,1566.3z"/>
		<path class="st7" d="M0.7,1519.3c0.8-5.3-1.8-6.6-6.8-6.3c-8.1,0.4-16.2,0.2-24.2,0.3v0.1l0,0c1.1,2.2-1.5,6.4,3.8,6.3
			C-17.5,1519.5-8.4,1519.5,0.7,1519.3L0.7,1519.3L0.7,1519.3L0.7,1519.3z"/>
		<path class="st7" d="M296.7,1566.3c8.5-0.1,7.9,1.1,7.9-8.1c0-4,0-8,0.1-11.9h-0.1v-0.1c-0.6,0.1-1.3,0.1-1.9,0
			c-5-0.9-6.2,1.5-5.9,6.1c0.3,4.6-0.1,9.2-0.2,13.9L296.7,1566.3L296.7,1566.3L296.7,1566.3z"/>
		<path class="st7" d="M304.6,1558.2c0-4,0-8,0.1-11.9l0,0C304.7,1550.3,304.6,1554.3,304.6,1558.2z"/>
		<path class="st3" d="M107,1507.3c-5.3-2.2-10.8-0.8-16.2-1c-7-0.2-7-0.1-6,6.9c5.4,0,10.8-0.5,16.2,0c1.2,0.2,2.5,0.1,3.7-0.2
			c0.5-0.2,1-0.4,1.4-0.8c0.5-0.5,0.8-1.1,0.9-1.7C107.2,1509.4,107.2,1508.4,107,1507.3z"/>
		<path class="st3" d="M106,1512.2c-0.4,0.4-0.9,0.6-1.4,0.8C105.1,1512.8,105.6,1512.5,106,1512.2z"/>
		<path class="st3" d="M106.9,1510.4c-0.1,0.7-0.5,1.3-0.9,1.7C106.5,1511.7,106.8,1511.1,106.9,1510.4z"/>
		<path class="st3" d="M304.7,1546.3L304.7,1546.3L304.7,1546.3l2.4,0.1c0.7,0,1.3,0,1.8-0.1c3.1-0.3,3.1-1.6,3.1-7
			c0-4.3-0.2-8.6-0.3-12.9h-0.1v-0.1c-7.6,0.3-7-1.5-7.1,7.2C304.6,1537.7,304.6,1542,304.7,1546.3L304.7,1546.3L304.7,1546.3z"/>
		<path class="st3" d="M342.7,1493.3L342.7,1493.3c2.8,0.1,5.5-0.1,8.3-0.1c6.9,0,6.9,0,6.7-6.9h-0.1v-0.1c-2.8,0-5.6,0-8.3,0
			c-3.7,0.1-5.4-0.3-6.1,0.5c-0.1,0.1-0.2,0.2-0.2,0.4c-0.1,0.2-0.1,0.3-0.2,0.5c0,0.2-0.1,0.4-0.1,0.6c-0.1,0.6-0.1,1.2-0.1,1.7
			C342.6,1490.9,342.6,1491.9,342.7,1493.3L342.7,1493.3L342.7,1493.3z"/>
		<path class="st3" d="M342.6,1490.1c0-0.6,0-1.2,0.1-1.7C342.6,1488.9,342.6,1489.5,342.6,1490.1z"/>
		<path class="st3" d="M342.8,1487.7c0-0.2,0.1-0.3,0.2-0.5C342.9,1487.4,342.8,1487.5,342.8,1487.7z"/>
		<path class="st3" d="M342.9,1487.2c0.1-0.1,0.1-0.3,0.2-0.4C343.1,1487,343,1487.1,342.9,1487.2z"/>
		<path class="st3" d="M135.2,1486.3c-5.9,0-6.6,1-4.5,6.8c2.8,0,5.6-0.4,8.3,0c0.8,0.1,1.6,0.2,2.4,0.1c0.4,0,0.8-0.1,1.2-0.2
			c0.5-0.2,1-0.4,1.4-0.8c0.8-0.9,1.2-2.1,1.1-3.3c0-0.5,0-1.1-0.1-1.6C141.9,1485.8,138.5,1486.3,135.2,1486.3z"/>
		<path class="st3" d="M142.7,1493.1c-0.4,0.1-0.8,0.2-1.2,0.2C141.9,1493.3,142.3,1493.2,142.7,1493.1z"/>
		<path class="st3" d="M145.1,1488.9c0.1,1.2-0.3,2.4-1.1,3.3C144.8,1491.3,145.2,1490.1,145.1,1488.9z"/>
		<path class="st3" d="M144,1492.2c-0.4,0.4-0.9,0.7-1.4,0.8C143.2,1492.9,143.6,1492.6,144,1492.2z"/>
		<path class="st6" d="M312.5,1513.9l-0.9,12.3h0.1v0.1c8.8-0.3,8,1.7,8.1-8.1c0-1.6,0-3.2-0.1-4.9
			C317.3,1513.9,315,1514.9,312.5,1513.9z"/>
		<path class="st6" d="M312.5,1513.9L312.5,1513.9l-0.9,12.3l0,0L312.5,1513.9z"/>
		<path class="st6" d="M319.8,1518.2c0-1.6,0-3.2-0.1-4.9l0,0C319.7,1515,319.8,1516.6,319.8,1518.2z"/>
		<path class="st3" d="M198.4,1433.6c0,2.1,0.2,4.2,0.3,6.3c7-0.5,7-0.5,7-7.7c0-1.9,0-3.9,0-5.8l0,0v-0.1
			C198.4,1426.3,198.3,1426.3,198.4,1433.6z"/>
		<path class="st7" d="M183.3,1453.4c0,2.1,0.3,4.3,0.4,6.4c6.8-0.4,6.8-0.4,6.8-7.6c0-0.8,0-1.6,0-2.5s0-1.6,0.1-2.5
			C183.4,1446.2,183.2,1446.3,183.3,1453.4z"/>
		<path class="st7" d="M190.6,1449.8c0-0.8,0-1.6,0.1-2.5l0,0C190.6,1448.1,190.6,1449,190.6,1449.8z"/>
		<path class="st6" d="M75.7,1513.3c-0.8,0-1.6-0.1-2.3-0.1c-0.7-0.1-1.4-0.1-2.1,0c-0.3,0-0.7,0.1-1,0.3c-1.6,0.7-1.9,2.4-1.2,4.9
			l0,0h14.7v-4l-1.1-1C80.4,1513.3,78,1513.3,75.7,1513.3z"/>
		<path class="st6" d="M70.3,1513.4c0.3-0.1,0.7-0.2,1-0.3C70.9,1513.2,70.6,1513.2,70.3,1513.4z"/>
		<path class="st6" d="M69.1,1518.3c-0.7-2.6-0.4-4.3,1.2-4.9C68.7,1514.1,68.4,1515.8,69.1,1518.3L69.1,1518.3z"/>
		<path class="st6" d="M122.2,1500.3L122.2,1500.3l-11.9-0.3c-2-0.1-3.1,0.7-3.1,2.9s1.2,2.8,3.2,2.8c3.8,0,7.6,0,11.4,0.1
			L122.2,1500.3L122.2,1500.3L122.2,1500.3z"/>
		<path class="st6" d="M122.2,1500.3l-11.9-0.3L122.2,1500.3L122.2,1500.3z"/>
		<path class="st6" d="M148.4,1480c-2-0.1-3.1,0.7-3.1,2.9c0,2.2,1.2,2.8,3.2,2.8c3.8,0,7.6,0.1,11.4,0.1l0.4-5.4L148.4,1480z"/>
		<path class="st8" d="M327.7,1505.4L327.7,1505.4L327.7,1505.4c-1.1,0.4-2.3,0.7-3.5,0.8H324c-0.7,0.1-1.4,0.2-2.1,0.5
			c-1.8,0.6-3,2-2.1,5.7l0.1,1C327.5,1513.1,327.5,1513.1,327.7,1505.4z"/>
		<path class="st8" d="M321.7,1506.6c0.7-0.2,1.4-0.4,2.1-0.5C323.1,1506.2,322.4,1506.4,321.7,1506.6z"/>
		<path class="st8" d="M327.6,1505.2c-1.1,0.5-2.3,0.8-3.5,0.9C325.3,1506,326.5,1505.7,327.6,1505.2L327.6,1505.2z"/>
		<path class="st3" d="M168.3,1467.3c-1.5,1.4-1,3.9,0.3,5.8c1,0.1,2,0.1,3,0c0.4,0,0.9-0.1,1.3-0.2c1.6-0.4,2.7-1.5,2.7-3.8
			c0-0.6-0.1-1.3-0.2-1.9C173.1,1465.9,170.3,1465.4,168.3,1467.3z"/>
		<path class="st3" d="M172.9,1473c1.6-0.4,2.7-1.5,2.7-3.8C175.6,1471.5,174.5,1472.5,172.9,1473z"/>
		<path class="st3" d="M172.9,1473c-0.4,0.1-0.9,0.2-1.3,0.2C172.1,1473.2,172.5,1473.1,172.9,1473z"/>
		<path class="st7" d="M327.6,1505.2L327.6,1505.2c3.3,1.3,5.2,1.7,6.2,0.8c0.3-0.3,0.5-0.7,0.7-1.1c0.4-1.9,0.5-3.8,0.2-5.7h-0.1
			v-0.1c-1.4,0.2-2.8,0.3-4.2,0.3c-0.4,0-0.9,0.1-1.3,0.2s-0.7,0.3-1.1,0.5c-0.2,0.2-0.4,0.4-0.6,0.7
			C327.1,1501.9,327.1,1503.2,327.6,1505.2z"/>
		<path class="st7" d="M327.6,1501.1c0.1-0.3,0.3-0.5,0.6-0.7C327.9,1500.6,327.7,1500.8,327.6,1501.1z"/>
		<path class="st7" d="M334.5,1505c-0.1,0.4-0.3,0.8-0.7,1.1C334.1,1505.8,334.4,1505.4,334.5,1505z"/>
		<path class="st3" d="M334.7,1499.3L334.7,1499.3L334.7,1499.3c7.8,0.6,7.9,0.5,8-5.9h-0.1v-0.1c-1.8-0.3-3.6-0.3-5.5-0.1
			C335.3,1493.6,335.1,1495.2,334.7,1499.3z"/>
		<path class="st3" d="M160.7,1479.9c0.4-0.1,0.9-0.1,1.4-0.1h1.4c0.5,0,0.9,0,1.4-0.1c1.8-0.2,3.1-0.9,3.2-3.2
			c0-0.7-0.1-1.4-0.2-2.1C161.3,1471.6,159.9,1472.7,160.7,1479.9z"/>
		<path class="st3" d="M164.8,1479.7c1.8-0.2,3.1-0.9,3.2-3.2C168,1478.8,166.6,1479.5,164.8,1479.7z"/>
		<path class="st3" d="M164.8,1479.7c-0.4,0.1-0.9,0.1-1.4,0.1C163.9,1479.8,164.4,1479.7,164.8,1479.7z"/>
		<path class="st3" d="M122.7,1499.9c0.7-0.1,1.4-0.1,2.1-0.1s1.4,0,2.1-0.1c1.7-0.2,3.1-0.9,3.2-3.3c0-0.7-0.1-1.4-0.2-2.1
			C123.3,1491.6,121.9,1492.7,122.7,1499.9z"/>
		<path class="st3" d="M126.8,1499.7c-0.7,0.1-1.4,0.1-2.1,0.1C125.5,1499.8,126.1,1499.8,126.8,1499.7z"/>
		<path class="st3" d="M126.8,1499.7c1.7-0.2,3.1-0.9,3.2-3.3C129.9,1498.8,128.6,1499.5,126.8,1499.7z"/>
		<path class="st6" d="M193.3,1440c-1.8-0.1-2.7,0.7-2.8,2.6s0.6,3.1,2.8,3.1c1.5,0,3,0.1,4.4,0.1l0.4-5.5
			C196.6,1440.2,195,1440.1,193.3,1440z"/>
		<path class="st6" d="M181.1,1460.1c-2.1,0.4-5.4-1.6-5.6,2.6c-0.2,4.2,3.2,2.6,5.3,3c0.2,0,0.3,0,0.5,0c0.5,0,1-0.1,1.5-0.1
			l0.3-5.3C182.4,1460.1,181.8,1460,181.1,1460.1z"/>
		<path class="st6" d="M182.8,1465.6l0.3-5.3l0,0L182.8,1465.6z"/>
		<path class="st5" d="M319.7,1513.4L319.7,1513.4L319.7,1513.4l-0.1-1.1c-0.6,0.2-1.2,0.2-1.8,0.1c-1.9-0.2-3.9-0.9-5.2,1.5l0,0
			C315,1514.9,317.3,1513.9,319.7,1513.4z"/>
		<path class="st3" d="M82.7,1513.3l1.1,1l0.5-1H82.7z"/>
	</g>
	<rect x="-105.5" y="-36.9" class="st9" width="752.9" height="641.1"/>
	<text transform="matrix(1 0 0 1 -41.4561 560.39)" class="st10 st11">易</text>
	<text transform="matrix(1 0 0 1 -5.0001 1236.389)" class="st10 st11">者</text>
	<text transform="matrix(1 0 0 1 -41.4562 1944.3895)" class="st10 st11">武</text>
	<text transform="matrix(1 0 0 1 -33.456 2612.3936)" class="st10 st11">咅</text>
	<text transform="matrix(1 0 0 1 -33.4559 3288.394)" class="st10 st11">尚</text>
	<text transform="matrix(1 0 0 1 1.599789e-04 3980.397)" class="st10 st11">卖</text>
	<g>
		<g>
			<g>
				<defs>
					<rect id="SVGID_1_" x="42" y="1574" width="432" height="16"/>
				</defs>
				<clipPath id="SVGID_2_">
					<use xlink:href="#SVGID_1_"  style="overflow:visible;"/>
				</clipPath>
				<path class="st12" d="M45.6,1581.3c-0.7-0.7-1.4-1.3-2.3-1.8l0.7-0.8c0.8,0.6,1.6,1.2,2.3,1.8L45.6,1581.3L45.6,1581.3z
					 M46.1,1581.2c0.2,0.7,0.5,1.1,0.8,1.3c-0.8,1.4-1.5,2.8-2.1,4.2l-1.1-0.8C44.5,1584.9,45.3,1583.4,46.1,1581.2L46.1,1581.2z
					 M46.5,1578.6c-0.7-0.7-1.4-1.3-2.2-1.8l0.7-0.8c0.8,0.5,1.5,1.1,2.2,1.8L46.5,1578.6L46.5,1578.6z"/>
			</g>
		</g>
	</g>
</g>
<g id="图层_2" class="st0">
	<rect x="-615.3" y="10352.2" class="st6" width="615.3" height="691.6"/>
	<rect x="-615.3" y="15294.2" class="st6" width="615.3" height="691.6"/>
</g>
</svg>
